<mxfile host="Drawpyo" modified="2024-11-27T15:36:29" agent="Python 3.12, Drawpyo 0.01" version="21.6.5" type="device">
  <diagram name="Page-1" id="130806691209120">
    <mxGraphModel dx="2037" dy="830" grid="1" gridSize="10" guides="1" toolTips="1" connect="1" arrows="1" fold="1" page="1" pageScale="1" pageWidth="850" pageHeight="1100" math="0" shadow="0">
      <root>
        <mxCell id="0" />
        <mxCell id="1" parent="0" />
        <mxCell id="130806691209744" value="" style="whiteSpace=wrap;rounded=0;fillColor=#98a1a6;strokeColor=#6c8ebf;dashed=0;inherit=default;html=1;strokeWidth=0;" vertex="1" parent="1">
  <mxGeometry x="0" y="20" width="120" height="20" as="geometry" />
</mxCell>
        <mxCell id="130806696458192" value="" style="whiteSpace=wrap;rounded=0;fillColor=none;strokeColor=none;dashed=0;inherit=default;html=1;strokeWidth=0;" vertex="1" parent="1">
  <mxGeometry x="0" y="0" width="0" height="0" as="geometry" />
</mxCell>
        <mxCell id="130806691210176" value="" style="whiteSpace=wrap;rounded=0;fillColor=none;strokeColor=none;dashed=0;inherit=default;html=1;strokeWidth=0;" vertex="1" parent="1">
  <mxGeometry x="0" y="40" width="0" height="0" as="geometry" />
</mxCell>
        <mxCell id="130806691084048" style="edgeStyle=orthogonalEdgeStyle;orthogonalLoop=1;rounded=0;jettySize=auto;" edge="1" parent="1" source="130806691210176" target="130806696458192">
  <mxGeometry relative="1" as="geometry" />
</mxCell>
        <mxCell id="130806692569280" value="" style="whiteSpace=wrap;rounded=0;fillColor=#98a1a6;strokeColor=#6c8ebf;dashed=0;inherit=default;html=1;strokeWidth=0;" vertex="1" parent="1">
  <mxGeometry x="200" y="20" width="120" height="20" as="geometry" />
</mxCell>
        <mxCell id="130806691210896" value="" style="whiteSpace=wrap;rounded=0;fillColor=none;strokeColor=none;dashed=0;inherit=default;html=1;strokeWidth=0;" vertex="1" parent="1">
  <mxGeometry x="200" y="0" width="0" height="0" as="geometry" />
</mxCell>
        <mxCell id="130806691211232" value="" style="whiteSpace=wrap;rounded=0;fillColor=none;strokeColor=none;dashed=0;inherit=default;html=1;strokeWidth=0;" vertex="1" parent="1">
  <mxGeometry x="200" y="40" width="0" height="0" as="geometry" />
</mxCell>
        <mxCell id="130806693023568" style="edgeStyle=orthogonalEdgeStyle;orthogonalLoop=1;rounded=0;jettySize=auto;" edge="1" parent="1" source="130806691211232" target="130806691210896">
  <mxGeometry relative="1" as="geometry" />
</mxCell>
        <mxCell id="130806691211424" value="" style="whiteSpace=wrap;rounded=0;fillColor=#98a1a6;strokeColor=#6c8ebf;dashed=0;inherit=default;html=1;strokeWidth=0;" vertex="1" parent="1">
  <mxGeometry x="400" y="20" width="120" height="20" as="geometry" />
</mxCell>
        <mxCell id="130806691212048" value="" style="whiteSpace=wrap;rounded=0;fillColor=none;strokeColor=none;dashed=0;inherit=default;html=1;strokeWidth=0;" vertex="1" parent="1">
  <mxGeometry x="400" y="0" width="0" height="0" as="geometry" />
</mxCell>
        <mxCell id="130806691212384" value="" style="whiteSpace=wrap;rounded=0;fillColor=none;strokeColor=none;dashed=0;inherit=default;html=1;strokeWidth=0;" vertex="1" parent="1">
  <mxGeometry x="400" y="40" width="0" height="0" as="geometry" />
</mxCell>
        <mxCell id="130806691124368" style="edgeStyle=orthogonalEdgeStyle;orthogonalLoop=1;rounded=0;jettySize=auto;" edge="1" parent="1" source="130806691212384" target="130806691212048">
  <mxGeometry relative="1" as="geometry" />
</mxCell>
        <mxCell id="130806691124464" value="" style="whiteSpace=wrap;rounded=0;fillColor=#98a1a6;strokeColor=#6c8ebf;dashed=0;inherit=default;html=1;strokeWidth=0;" vertex="1" parent="1">
  <mxGeometry x="600" y="20" width="120" height="20" as="geometry" />
</mxCell>
        <mxCell id="130806691213056" value="" style="whiteSpace=wrap;rounded=0;fillColor=none;strokeColor=none;dashed=0;inherit=default;html=1;strokeWidth=0;" vertex="1" parent="1">
  <mxGeometry x="600" y="0" width="0" height="0" as="geometry" />
</mxCell>
        <mxCell id="130806691213392" value="" style="whiteSpace=wrap;rounded=0;fillColor=none;strokeColor=none;dashed=0;inherit=default;html=1;strokeWidth=0;" vertex="1" parent="1">
  <mxGeometry x="600" y="40" width="0" height="0" as="geometry" />
</mxCell>
        <mxCell id="130806691213536" style="edgeStyle=orthogonalEdgeStyle;orthogonalLoop=1;rounded=0;jettySize=auto;" edge="1" parent="1" source="130806691213392" target="130806691213056">
  <mxGeometry relative="1" as="geometry" />
</mxCell>
        <mxCell id="130806691213584" value="" style="whiteSpace=wrap;rounded=0;fillColor=#98a1a6;strokeColor=#6c8ebf;dashed=0;inherit=default;html=1;strokeWidth=0;" vertex="1" parent="1">
  <mxGeometry x="800" y="20" width="120" height="20" as="geometry" />
</mxCell>
        <mxCell id="130806691214352" value="" style="whiteSpace=wrap;rounded=0;fillColor=none;strokeColor=none;dashed=0;inherit=default;html=1;strokeWidth=0;" vertex="1" parent="1">
  <mxGeometry x="800" y="0" width="0" height="0" as="geometry" />
</mxCell>
        <mxCell id="130806691214688" value="" style="whiteSpace=wrap;rounded=0;fillColor=none;strokeColor=none;dashed=0;inherit=default;html=1;strokeWidth=0;" vertex="1" parent="1">
  <mxGeometry x="800" y="40" width="0" height="0" as="geometry" />
</mxCell>
        <mxCell id="130806691214832" style="edgeStyle=orthogonalEdgeStyle;orthogonalLoop=1;rounded=0;jettySize=auto;" edge="1" parent="1" source="130806691214688" target="130806691214352">
  <mxGeometry relative="1" as="geometry" />
</mxCell>
        <mxCell id="130806691214880" value="" style="whiteSpace=wrap;rounded=0;fillColor=#98a1a6;strokeColor=#6c8ebf;dashed=0;inherit=default;html=1;strokeWidth=0;" vertex="1" parent="1">
  <mxGeometry x="1000" y="20" width="120" height="20" as="geometry" />
</mxCell>
        <mxCell id="130806691215648" value="" style="whiteSpace=wrap;rounded=0;fillColor=none;strokeColor=none;dashed=0;inherit=default;html=1;strokeWidth=0;" vertex="1" parent="1">
  <mxGeometry x="1000" y="0" width="0" height="0" as="geometry" />
</mxCell>
        <mxCell id="130806691215984" value="" style="whiteSpace=wrap;rounded=0;fillColor=none;strokeColor=none;dashed=0;inherit=default;html=1;strokeWidth=0;" vertex="1" parent="1">
  <mxGeometry x="1000" y="40" width="0" height="0" as="geometry" />
</mxCell>
        <mxCell id="130806691216128" style="edgeStyle=orthogonalEdgeStyle;orthogonalLoop=1;rounded=0;jettySize=auto;" edge="1" parent="1" source="130806691215984" target="130806691215648">
  <mxGeometry relative="1" as="geometry" />
</mxCell>
        <mxCell id="130806691216176" value="" style="whiteSpace=wrap;rounded=0;fillColor=#98a1a6;strokeColor=#6c8ebf;dashed=0;inherit=default;html=1;strokeWidth=0;" vertex="1" parent="1">
  <mxGeometry x="1200" y="20" width="120" height="20" as="geometry" />
</mxCell>
        <mxCell id="130806691216944" value="" style="whiteSpace=wrap;rounded=0;fillColor=none;strokeColor=none;dashed=0;inherit=default;html=1;strokeWidth=0;" vertex="1" parent="1">
  <mxGeometry x="1200" y="0" width="0" height="0" as="geometry" />
</mxCell>
        <mxCell id="130806691217232" value="" style="whiteSpace=wrap;rounded=0;fillColor=none;strokeColor=none;dashed=0;inherit=default;html=1;strokeWidth=0;" vertex="1" parent="1">
  <mxGeometry x="1200" y="40" width="0" height="0" as="geometry" />
</mxCell>
        <mxCell id="130806691217376" style="edgeStyle=orthogonalEdgeStyle;orthogonalLoop=1;rounded=0;jettySize=auto;" edge="1" parent="1" source="130806691217232" target="130806691216944">
  <mxGeometry relative="1" as="geometry" />
</mxCell>
        <mxCell id="130806696771024" value="" style="whiteSpace=wrap;rounded=0;fillColor=#98a1a6;strokeColor=#6c8ebf;dashed=0;inherit=default;html=1;strokeWidth=0;" vertex="1" parent="1">
  <mxGeometry x="1400" y="20" width="120" height="20" as="geometry" />
</mxCell>
        <mxCell id="130806691332848" value="" style="whiteSpace=wrap;rounded=0;fillColor=none;strokeColor=none;dashed=0;inherit=default;html=1;strokeWidth=0;" vertex="1" parent="1">
  <mxGeometry x="1400" y="0" width="0" height="0" as="geometry" />
</mxCell>
        <mxCell id="130806691333184" value="" style="whiteSpace=wrap;rounded=0;fillColor=none;strokeColor=none;dashed=0;inherit=default;html=1;strokeWidth=0;" vertex="1" parent="1">
  <mxGeometry x="1400" y="40" width="0" height="0" as="geometry" />
</mxCell>
        <mxCell id="130806691333328" style="edgeStyle=orthogonalEdgeStyle;orthogonalLoop=1;rounded=0;jettySize=auto;" edge="1" parent="1" source="130806691333184" target="130806691332848">
  <mxGeometry relative="1" as="geometry" />
</mxCell>
        <mxCell id="130806691333376" value="" style="whiteSpace=wrap;rounded=0;fillColor=#98a1a6;strokeColor=#6c8ebf;dashed=0;inherit=default;html=1;strokeWidth=0;" vertex="1" parent="1">
  <mxGeometry x="1600" y="20" width="120" height="20" as="geometry" />
</mxCell>
        <mxCell id="130806691334096" value="" style="whiteSpace=wrap;rounded=0;fillColor=none;strokeColor=none;dashed=0;inherit=default;html=1;strokeWidth=0;" vertex="1" parent="1">
  <mxGeometry x="1600" y="0" width="0" height="0" as="geometry" />
</mxCell>
        <mxCell id="130806691334432" value="" style="whiteSpace=wrap;rounded=0;fillColor=none;strokeColor=none;dashed=0;inherit=default;html=1;strokeWidth=0;" vertex="1" parent="1">
  <mxGeometry x="1600" y="40" width="0" height="0" as="geometry" />
</mxCell>
        <mxCell id="130806691204752" style="edgeStyle=orthogonalEdgeStyle;orthogonalLoop=1;rounded=0;jettySize=auto;" edge="1" parent="1" source="130806691334432" target="130806691334096">
  <mxGeometry relative="1" as="geometry" />
</mxCell>
        <mxCell id="130806691334624" value="" style="whiteSpace=wrap;rounded=0;fillColor=#98a1a6;strokeColor=#6c8ebf;dashed=0;inherit=default;html=1;strokeWidth=0;" vertex="1" parent="1">
  <mxGeometry x="1800" y="20" width="120" height="20" as="geometry" />
</mxCell>
        <mxCell id="130806691335296" value="" style="whiteSpace=wrap;rounded=0;fillColor=none;strokeColor=none;dashed=0;inherit=default;html=1;strokeWidth=0;" vertex="1" parent="1">
  <mxGeometry x="1800" y="0" width="0" height="0" as="geometry" />
</mxCell>
        <mxCell id="130806691335632" value="" style="whiteSpace=wrap;rounded=0;fillColor=none;strokeColor=none;dashed=0;inherit=default;html=1;strokeWidth=0;" vertex="1" parent="1">
  <mxGeometry x="1800" y="40" width="0" height="0" as="geometry" />
</mxCell>
        <mxCell id="130806691335776" style="edgeStyle=orthogonalEdgeStyle;orthogonalLoop=1;rounded=0;jettySize=auto;" edge="1" parent="1" source="130806691335632" target="130806691335296">
  <mxGeometry relative="1" as="geometry" />
</mxCell>
        <mxCell id="130806691335824" value="" style="whiteSpace=wrap;rounded=0;fillColor=#98a1a6;strokeColor=#6c8ebf;dashed=0;inherit=default;html=1;strokeWidth=0;" vertex="1" parent="1">
  <mxGeometry x="2000" y="20" width="120" height="20" as="geometry" />
</mxCell>
        <mxCell id="130806691336592" value="" style="whiteSpace=wrap;rounded=0;fillColor=none;strokeColor=none;dashed=0;inherit=default;html=1;strokeWidth=0;" vertex="1" parent="1">
  <mxGeometry x="2000" y="0" width="0" height="0" as="geometry" />
</mxCell>
        <mxCell id="130806691336928" value="" style="whiteSpace=wrap;rounded=0;fillColor=none;strokeColor=none;dashed=0;inherit=default;html=1;strokeWidth=0;" vertex="1" parent="1">
  <mxGeometry x="2000" y="40" width="0" height="0" as="geometry" />
</mxCell>
        <mxCell id="130806691337072" style="edgeStyle=orthogonalEdgeStyle;orthogonalLoop=1;rounded=0;jettySize=auto;" edge="1" parent="1" source="130806691336928" target="130806691336592">
  <mxGeometry relative="1" as="geometry" />
</mxCell>
        <mxCell id="130806691337120" value="" style="whiteSpace=wrap;rounded=0;fillColor=#98a1a6;strokeColor=#6c8ebf;dashed=0;inherit=default;html=1;strokeWidth=0;" vertex="1" parent="1">
  <mxGeometry x="2200" y="20" width="120" height="20" as="geometry" />
</mxCell>
        <mxCell id="130806691337888" value="" style="whiteSpace=wrap;rounded=0;fillColor=none;strokeColor=none;dashed=0;inherit=default;html=1;strokeWidth=0;" vertex="1" parent="1">
  <mxGeometry x="2200" y="0" width="0" height="0" as="geometry" />
</mxCell>
        <mxCell id="130806691338176" value="" style="whiteSpace=wrap;rounded=0;fillColor=none;strokeColor=none;dashed=0;inherit=default;html=1;strokeWidth=0;" vertex="1" parent="1">
  <mxGeometry x="2200" y="40" width="0" height="0" as="geometry" />
</mxCell>
        <mxCell id="130806691338320" style="edgeStyle=orthogonalEdgeStyle;orthogonalLoop=1;rounded=0;jettySize=auto;" edge="1" parent="1" source="130806691338176" target="130806691337888">
  <mxGeometry relative="1" as="geometry" />
</mxCell>
        <mxCell id="130806691338368" value="" style="whiteSpace=wrap;rounded=0;fillColor=none;strokeColor=none;dashed=0;inherit=default;html=1;strokeWidth=0;" vertex="1" parent="1">
  <mxGeometry x="2400" y="0" width="0" height="0" as="geometry" />
</mxCell>
        <mxCell id="130806691339088" value="" style="whiteSpace=wrap;rounded=0;fillColor=none;strokeColor=none;dashed=0;inherit=default;html=1;strokeWidth=0;" vertex="1" parent="1">
  <mxGeometry x="2400" y="40" width="0" height="0" as="geometry" />
</mxCell>
        <mxCell id="130806691339232" style="edgeStyle=orthogonalEdgeStyle;orthogonalLoop=1;rounded=0;jettySize=auto;" edge="1" parent="1" source="130806691339088" target="130806691338368">
  <mxGeometry relative="1" as="geometry" />
</mxCell>
        <mxCell id="130806691209792" value="" style="whiteSpace=wrap;rounded=0;fillColor=none;strokeColor=none;dashed=0;inherit=default;html=1;strokeWidth=0;" vertex="1" parent="1">
  <mxGeometry x="0" y="40" width="0" height="0" as="geometry" />
</mxCell>
        <mxCell id="130806691339952" value="" style="whiteSpace=wrap;rounded=0;fillColor=none;strokeColor=none;dashed=0;inherit=default;html=1;strokeWidth=0;" vertex="1" parent="1">
  <mxGeometry x="2400" y="40" width="0" height="0" as="geometry" />
</mxCell>
        <mxCell id="130806691340096" style="edgeStyle=orthogonalEdgeStyle;orthogonalLoop=1;rounded=0;jettySize=auto;endArrow=none;" edge="1" parent="1" source="130806691339952" target="130806691209792">
  <mxGeometry relative="1" as="geometry" />
</mxCell>
        <mxCell id="130806691340960" value="0" style="text;whiteSpace=wrap;rounded=0;dashed=0;inherit=default;" vertex="1" parent="1">
  <mxGeometry x="-5" y="40" width="0" height="0" as="geometry" />
</mxCell>
        <mxCell id="130806691341104" value="1" style="text;whiteSpace=wrap;rounded=0;dashed=0;inherit=default;" vertex="1" parent="1">
  <mxGeometry x="35" y="40" width="0" height="0" as="geometry" />
</mxCell>
        <mxCell id="130806691341296" value="2" style="text;whiteSpace=wrap;rounded=0;dashed=0;inherit=default;" vertex="1" parent="1">
  <mxGeometry x="75" y="40" width="0" height="0" as="geometry" />
</mxCell>
        <mxCell id="130806691341488" value="3" style="text;whiteSpace=wrap;rounded=0;dashed=0;inherit=default;" vertex="1" parent="1">
  <mxGeometry x="115" y="40" width="0" height="0" as="geometry" />
</mxCell>
        <mxCell id="130806691341680" value="4" style="text;whiteSpace=wrap;rounded=0;dashed=0;inherit=default;" vertex="1" parent="1">
  <mxGeometry x="155" y="40" width="0" height="0" as="geometry" />
</mxCell>
        <mxCell id="130806691341872" value="5" style="text;whiteSpace=wrap;rounded=0;dashed=0;inherit=default;" vertex="1" parent="1">
  <mxGeometry x="195" y="40" width="0" height="0" as="geometry" />
</mxCell>
        <mxCell id="130806691342064" value="6" style="text;whiteSpace=wrap;rounded=0;dashed=0;inherit=default;" vertex="1" parent="1">
  <mxGeometry x="235" y="40" width="0" height="0" as="geometry" />
</mxCell>
        <mxCell id="130806691342256" value="7" style="text;whiteSpace=wrap;rounded=0;dashed=0;inherit=default;" vertex="1" parent="1">
  <mxGeometry x="275" y="40" width="0" height="0" as="geometry" />
</mxCell>
        <mxCell id="130806691342448" value="8" style="text;whiteSpace=wrap;rounded=0;dashed=0;inherit=default;" vertex="1" parent="1">
  <mxGeometry x="315" y="40" width="0" height="0" as="geometry" />
</mxCell>
        <mxCell id="130806691342640" value="9" style="text;whiteSpace=wrap;rounded=0;dashed=0;inherit=default;" vertex="1" parent="1">
  <mxGeometry x="355" y="40" width="0" height="0" as="geometry" />
</mxCell>
        <mxCell id="130806691342832" value="10" style="text;whiteSpace=wrap;rounded=0;dashed=0;inherit=default;" vertex="1" parent="1">
  <mxGeometry x="395" y="40" width="0" height="0" as="geometry" />
</mxCell>
        <mxCell id="130806691343024" value="11" style="text;whiteSpace=wrap;rounded=0;dashed=0;inherit=default;" vertex="1" parent="1">
  <mxGeometry x="435" y="40" width="0" height="0" as="geometry" />
</mxCell>
        <mxCell id="130806691343216" value="12" style="text;whiteSpace=wrap;rounded=0;dashed=0;inherit=default;" vertex="1" parent="1">
  <mxGeometry x="475" y="40" width="0" height="0" as="geometry" />
</mxCell>
        <mxCell id="130806691343408" value="13" style="text;whiteSpace=wrap;rounded=0;dashed=0;inherit=default;" vertex="1" parent="1">
  <mxGeometry x="515" y="40" width="0" height="0" as="geometry" />
</mxCell>
        <mxCell id="130806691343600" value="14" style="text;whiteSpace=wrap;rounded=0;dashed=0;inherit=default;" vertex="1" parent="1">
  <mxGeometry x="555" y="40" width="0" height="0" as="geometry" />
</mxCell>
        <mxCell id="130806691343792" value="15" style="text;whiteSpace=wrap;rounded=0;dashed=0;inherit=default;" vertex="1" parent="1">
  <mxGeometry x="595" y="40" width="0" height="0" as="geometry" />
</mxCell>
        <mxCell id="130806691343984" value="16" style="text;whiteSpace=wrap;rounded=0;dashed=0;inherit=default;" vertex="1" parent="1">
  <mxGeometry x="635" y="40" width="0" height="0" as="geometry" />
</mxCell>
        <mxCell id="130806691344176" value="17" style="text;whiteSpace=wrap;rounded=0;dashed=0;inherit=default;" vertex="1" parent="1">
  <mxGeometry x="675" y="40" width="0" height="0" as="geometry" />
</mxCell>
        <mxCell id="130806691344368" value="18" style="text;whiteSpace=wrap;rounded=0;dashed=0;inherit=default;" vertex="1" parent="1">
  <mxGeometry x="715" y="40" width="0" height="0" as="geometry" />
</mxCell>
        <mxCell id="130806691344560" value="19" style="text;whiteSpace=wrap;rounded=0;dashed=0;inherit=default;" vertex="1" parent="1">
  <mxGeometry x="755" y="40" width="0" height="0" as="geometry" />
</mxCell>
        <mxCell id="130806691344752" value="20" style="text;whiteSpace=wrap;rounded=0;dashed=0;inherit=default;" vertex="1" parent="1">
  <mxGeometry x="795" y="40" width="0" height="0" as="geometry" />
</mxCell>
        <mxCell id="130806691344944" value="21" style="text;whiteSpace=wrap;rounded=0;dashed=0;inherit=default;" vertex="1" parent="1">
  <mxGeometry x="835" y="40" width="0" height="0" as="geometry" />
</mxCell>
        <mxCell id="130806691345136" value="22" style="text;whiteSpace=wrap;rounded=0;dashed=0;inherit=default;" vertex="1" parent="1">
  <mxGeometry x="875" y="40" width="0" height="0" as="geometry" />
</mxCell>
        <mxCell id="130806691345328" value="23" style="text;whiteSpace=wrap;rounded=0;dashed=0;inherit=default;" vertex="1" parent="1">
  <mxGeometry x="915" y="40" width="0" height="0" as="geometry" />
</mxCell>
        <mxCell id="130806691345520" value="24" style="text;whiteSpace=wrap;rounded=0;dashed=0;inherit=default;" vertex="1" parent="1">
  <mxGeometry x="955" y="40" width="0" height="0" as="geometry" />
</mxCell>
        <mxCell id="130806691345712" value="25" style="text;whiteSpace=wrap;rounded=0;dashed=0;inherit=default;" vertex="1" parent="1">
  <mxGeometry x="995" y="40" width="0" height="0" as="geometry" />
</mxCell>
        <mxCell id="130806691345904" value="26" style="text;whiteSpace=wrap;rounded=0;dashed=0;inherit=default;" vertex="1" parent="1">
  <mxGeometry x="1035" y="40" width="0" height="0" as="geometry" />
</mxCell>
        <mxCell id="130806691346096" value="27" style="text;whiteSpace=wrap;rounded=0;dashed=0;inherit=default;" vertex="1" parent="1">
  <mxGeometry x="1075" y="40" width="0" height="0" as="geometry" />
</mxCell>
        <mxCell id="130806691346288" value="28" style="text;whiteSpace=wrap;rounded=0;dashed=0;inherit=default;" vertex="1" parent="1">
  <mxGeometry x="1115" y="40" width="0" height="0" as="geometry" />
</mxCell>
        <mxCell id="130806691346480" value="29" style="text;whiteSpace=wrap;rounded=0;dashed=0;inherit=default;" vertex="1" parent="1">
  <mxGeometry x="1155" y="40" width="0" height="0" as="geometry" />
</mxCell>
        <mxCell id="130806691346672" value="30" style="text;whiteSpace=wrap;rounded=0;dashed=0;inherit=default;" vertex="1" parent="1">
  <mxGeometry x="1195" y="40" width="0" height="0" as="geometry" />
</mxCell>
        <mxCell id="130806691346864" value="31" style="text;whiteSpace=wrap;rounded=0;dashed=0;inherit=default;" vertex="1" parent="1">
  <mxGeometry x="1235" y="40" width="0" height="0" as="geometry" />
</mxCell>
        <mxCell id="130806691347056" value="32" style="text;whiteSpace=wrap;rounded=0;dashed=0;inherit=default;" vertex="1" parent="1">
  <mxGeometry x="1275" y="40" width="0" height="0" as="geometry" />
</mxCell>
        <mxCell id="130806693024048" value="33" style="text;whiteSpace=wrap;rounded=0;dashed=0;inherit=default;" vertex="1" parent="1">
  <mxGeometry x="1315" y="40" width="0" height="0" as="geometry" />
</mxCell>
        <mxCell id="130806691347344" value="34" style="text;whiteSpace=wrap;rounded=0;dashed=0;inherit=default;" vertex="1" parent="1">
  <mxGeometry x="1355" y="40" width="0" height="0" as="geometry" />
</mxCell>
        <mxCell id="130806691347536" value="35" style="text;whiteSpace=wrap;rounded=0;dashed=0;inherit=default;" vertex="1" parent="1">
  <mxGeometry x="1395" y="40" width="0" height="0" as="geometry" />
</mxCell>
        <mxCell id="130806691347728" value="36" style="text;whiteSpace=wrap;rounded=0;dashed=0;inherit=default;" vertex="1" parent="1">
  <mxGeometry x="1435" y="40" width="0" height="0" as="geometry" />
</mxCell>
        <mxCell id="130806691347920" value="37" style="text;whiteSpace=wrap;rounded=0;dashed=0;inherit=default;" vertex="1" parent="1">
  <mxGeometry x="1475" y="40" width="0" height="0" as="geometry" />
</mxCell>
        <mxCell id="130806691348112" value="38" style="text;whiteSpace=wrap;rounded=0;dashed=0;inherit=default;" vertex="1" parent="1">
  <mxGeometry x="1515" y="40" width="0" height="0" as="geometry" />
</mxCell>
        <mxCell id="130806691348304" value="39" style="text;whiteSpace=wrap;rounded=0;dashed=0;inherit=default;" vertex="1" parent="1">
  <mxGeometry x="1555" y="40" width="0" height="0" as="geometry" />
</mxCell>
        <mxCell id="130806691446864" value="40" style="text;whiteSpace=wrap;rounded=0;dashed=0;inherit=default;" vertex="1" parent="1">
  <mxGeometry x="1595" y="40" width="0" height="0" as="geometry" />
</mxCell>
        <mxCell id="130806691447056" value="41" style="text;whiteSpace=wrap;rounded=0;dashed=0;inherit=default;" vertex="1" parent="1">
  <mxGeometry x="1635" y="40" width="0" height="0" as="geometry" />
</mxCell>
        <mxCell id="130806691447248" value="42" style="text;whiteSpace=wrap;rounded=0;dashed=0;inherit=default;" vertex="1" parent="1">
  <mxGeometry x="1675" y="40" width="0" height="0" as="geometry" />
</mxCell>
        <mxCell id="130806691447440" value="43" style="text;whiteSpace=wrap;rounded=0;dashed=0;inherit=default;" vertex="1" parent="1">
  <mxGeometry x="1715" y="40" width="0" height="0" as="geometry" />
</mxCell>
        <mxCell id="130806691447632" value="44" style="text;whiteSpace=wrap;rounded=0;dashed=0;inherit=default;" vertex="1" parent="1">
  <mxGeometry x="1755" y="40" width="0" height="0" as="geometry" />
</mxCell>
        <mxCell id="130806691447824" value="45" style="text;whiteSpace=wrap;rounded=0;dashed=0;inherit=default;" vertex="1" parent="1">
  <mxGeometry x="1795" y="40" width="0" height="0" as="geometry" />
</mxCell>
        <mxCell id="130806691448016" value="46" style="text;whiteSpace=wrap;rounded=0;dashed=0;inherit=default;" vertex="1" parent="1">
  <mxGeometry x="1835" y="40" width="0" height="0" as="geometry" />
</mxCell>
        <mxCell id="130806691448208" value="47" style="text;whiteSpace=wrap;rounded=0;dashed=0;inherit=default;" vertex="1" parent="1">
  <mxGeometry x="1875" y="40" width="0" height="0" as="geometry" />
</mxCell>
        <mxCell id="130806691448400" value="48" style="text;whiteSpace=wrap;rounded=0;dashed=0;inherit=default;" vertex="1" parent="1">
  <mxGeometry x="1915" y="40" width="0" height="0" as="geometry" />
</mxCell>
        <mxCell id="130806691448592" value="49" style="text;whiteSpace=wrap;rounded=0;dashed=0;inherit=default;" vertex="1" parent="1">
  <mxGeometry x="1955" y="40" width="0" height="0" as="geometry" />
</mxCell>
        <mxCell id="130806691448784" value="50" style="text;whiteSpace=wrap;rounded=0;dashed=0;inherit=default;" vertex="1" parent="1">
  <mxGeometry x="1995" y="40" width="0" height="0" as="geometry" />
</mxCell>
        <mxCell id="130806691448976" value="51" style="text;whiteSpace=wrap;rounded=0;dashed=0;inherit=default;" vertex="1" parent="1">
  <mxGeometry x="2035" y="40" width="0" height="0" as="geometry" />
</mxCell>
        <mxCell id="130806691449168" value="52" style="text;whiteSpace=wrap;rounded=0;dashed=0;inherit=default;" vertex="1" parent="1">
  <mxGeometry x="2075" y="40" width="0" height="0" as="geometry" />
</mxCell>
        <mxCell id="130806691449360" value="53" style="text;whiteSpace=wrap;rounded=0;dashed=0;inherit=default;" vertex="1" parent="1">
  <mxGeometry x="2115" y="40" width="0" height="0" as="geometry" />
</mxCell>
        <mxCell id="130806691449552" value="54" style="text;whiteSpace=wrap;rounded=0;dashed=0;inherit=default;" vertex="1" parent="1">
  <mxGeometry x="2155" y="40" width="0" height="0" as="geometry" />
</mxCell>
        <mxCell id="130806691449744" value="55" style="text;whiteSpace=wrap;rounded=0;dashed=0;inherit=default;" vertex="1" parent="1">
  <mxGeometry x="2195" y="40" width="0" height="0" as="geometry" />
</mxCell>
        <mxCell id="130806691449936" value="56" style="text;whiteSpace=wrap;rounded=0;dashed=0;inherit=default;" vertex="1" parent="1">
  <mxGeometry x="2235" y="40" width="0" height="0" as="geometry" />
</mxCell>
        <mxCell id="130806691450128" value="57" style="text;whiteSpace=wrap;rounded=0;dashed=0;inherit=default;" vertex="1" parent="1">
  <mxGeometry x="2275" y="40" width="0" height="0" as="geometry" />
</mxCell>
        <mxCell id="130806691450320" value="58" style="text;whiteSpace=wrap;rounded=0;dashed=0;inherit=default;" vertex="1" parent="1">
  <mxGeometry x="2315" y="40" width="0" height="0" as="geometry" />
</mxCell>
        <mxCell id="130806691450512" value="59" style="text;whiteSpace=wrap;rounded=0;dashed=0;inherit=default;" vertex="1" parent="1">
  <mxGeometry x="2355" y="40" width="0" height="0" as="geometry" />
</mxCell>
        <mxCell id="130806691450704" value="60" style="text;whiteSpace=wrap;rounded=0;dashed=0;inherit=default;" vertex="1" parent="1">
  <mxGeometry x="2395" y="40" width="0" height="0" as="geometry" />
</mxCell>
        <mxCell id="130806691450848" value="$$\tau_1: T=5, C=3$$" style="text;whiteSpace=wrap;rounded=0;dashed=0;inherit=default;" vertex="1" parent="1">
  <mxGeometry x="-120" y="15" width="120" height="40" as="geometry" />
</mxCell>
        <mxCell id="130806691209648" value="" style="whiteSpace=wrap;rounded=0;fillColor=#6642ae;strokeColor=#6c8ebf;dashed=0;inherit=default;html=1;strokeWidth=0;" vertex="1" parent="1">
  <mxGeometry x="0" y="100" width="40" height="20" as="geometry" />
</mxCell>
        <mxCell id="130806691451184" value="" style="whiteSpace=wrap;rounded=0;fillColor=none;strokeColor=none;dashed=0;inherit=default;html=1;strokeWidth=0;" vertex="1" parent="1">
  <mxGeometry x="0" y="80" width="0" height="0" as="geometry" />
</mxCell>
        <mxCell id="130806691451472" value="" style="whiteSpace=wrap;rounded=0;fillColor=none;strokeColor=none;dashed=0;inherit=default;html=1;strokeWidth=0;" vertex="1" parent="1">
  <mxGeometry x="0" y="120" width="0" height="0" as="geometry" />
</mxCell>
        <mxCell id="130806691337168" style="edgeStyle=orthogonalEdgeStyle;orthogonalLoop=1;rounded=0;jettySize=auto;" edge="1" parent="1" source="130806691451472" target="130806691451184">
  <mxGeometry relative="1" as="geometry" />
</mxCell>
        <mxCell id="130806691451616" value="" style="whiteSpace=wrap;rounded=0;fillColor=#6642ae;strokeColor=#6c8ebf;dashed=0;inherit=default;html=1;strokeWidth=0;" vertex="1" parent="1">
  <mxGeometry x="80" y="100" width="40" height="20" as="geometry" />
</mxCell>
        <mxCell id="130806691452384" value="" style="whiteSpace=wrap;rounded=0;fillColor=none;strokeColor=none;dashed=0;inherit=default;html=1;strokeWidth=0;" vertex="1" parent="1">
  <mxGeometry x="80" y="80" width="0" height="0" as="geometry" />
</mxCell>
        <mxCell id="130806691452720" value="" style="whiteSpace=wrap;rounded=0;fillColor=none;strokeColor=none;dashed=0;inherit=default;html=1;strokeWidth=0;" vertex="1" parent="1">
  <mxGeometry x="80" y="120" width="0" height="0" as="geometry" />
</mxCell>
        <mxCell id="130806691452864" style="edgeStyle=orthogonalEdgeStyle;orthogonalLoop=1;rounded=0;jettySize=auto;" edge="1" parent="1" source="130806691452720" target="130806691452384">
  <mxGeometry relative="1" as="geometry" />
</mxCell>
        <mxCell id="130806691452912" value="" style="whiteSpace=wrap;rounded=0;fillColor=#6642ae;strokeColor=#6c8ebf;dashed=0;inherit=default;html=1;strokeWidth=0;" vertex="1" parent="1">
  <mxGeometry x="160" y="100" width="40" height="20" as="geometry" />
</mxCell>
        <mxCell id="130806691453680" value="" style="whiteSpace=wrap;rounded=0;fillColor=none;strokeColor=none;dashed=0;inherit=default;html=1;strokeWidth=0;" vertex="1" parent="1">
  <mxGeometry x="160" y="80" width="0" height="0" as="geometry" />
</mxCell>
        <mxCell id="130806691454016" value="" style="whiteSpace=wrap;rounded=0;fillColor=none;strokeColor=none;dashed=0;inherit=default;html=1;strokeWidth=0;" vertex="1" parent="1">
  <mxGeometry x="160" y="120" width="0" height="0" as="geometry" />
</mxCell>
        <mxCell id="130806691454160" style="edgeStyle=orthogonalEdgeStyle;orthogonalLoop=1;rounded=0;jettySize=auto;" edge="1" parent="1" source="130806691454016" target="130806691453680">
  <mxGeometry relative="1" as="geometry" />
</mxCell>
        <mxCell id="130806691454208" value="" style="whiteSpace=wrap;rounded=0;fillColor=#6642ae;strokeColor=#6c8ebf;dashed=0;inherit=default;html=1;strokeWidth=0;" vertex="1" parent="1">
  <mxGeometry x="240" y="100" width="40" height="20" as="geometry" />
</mxCell>
        <mxCell id="130806691454928" value="" style="whiteSpace=wrap;rounded=0;fillColor=none;strokeColor=none;dashed=0;inherit=default;html=1;strokeWidth=0;" vertex="1" parent="1">
  <mxGeometry x="240" y="80" width="0" height="0" as="geometry" />
</mxCell>
        <mxCell id="130806691455264" value="" style="whiteSpace=wrap;rounded=0;fillColor=none;strokeColor=none;dashed=0;inherit=default;html=1;strokeWidth=0;" vertex="1" parent="1">
  <mxGeometry x="240" y="120" width="0" height="0" as="geometry" />
</mxCell>
        <mxCell id="130806691455408" style="edgeStyle=orthogonalEdgeStyle;orthogonalLoop=1;rounded=0;jettySize=auto;" edge="1" parent="1" source="130806691455264" target="130806691454928">
  <mxGeometry relative="1" as="geometry" />
</mxCell>
        <mxCell id="130806691455456" value="" style="whiteSpace=wrap;rounded=0;fillColor=#6642ae;strokeColor=#6c8ebf;dashed=0;inherit=default;html=1;strokeWidth=0;" vertex="1" parent="1">
  <mxGeometry x="320" y="100" width="40" height="20" as="geometry" />
</mxCell>
        <mxCell id="130806691456176" value="" style="whiteSpace=wrap;rounded=0;fillColor=none;strokeColor=none;dashed=0;inherit=default;html=1;strokeWidth=0;" vertex="1" parent="1">
  <mxGeometry x="320" y="80" width="0" height="0" as="geometry" />
</mxCell>
        <mxCell id="130806691456512" value="" style="whiteSpace=wrap;rounded=0;fillColor=none;strokeColor=none;dashed=0;inherit=default;html=1;strokeWidth=0;" vertex="1" parent="1">
  <mxGeometry x="320" y="120" width="0" height="0" as="geometry" />
</mxCell>
        <mxCell id="130806691456656" style="edgeStyle=orthogonalEdgeStyle;orthogonalLoop=1;rounded=0;jettySize=auto;" edge="1" parent="1" source="130806691456512" target="130806691456176">
  <mxGeometry relative="1" as="geometry" />
</mxCell>
        <mxCell id="130806691456704" value="" style="whiteSpace=wrap;rounded=0;fillColor=#6642ae;strokeColor=#6c8ebf;dashed=0;inherit=default;html=1;strokeWidth=0;" vertex="1" parent="1">
  <mxGeometry x="400" y="100" width="40" height="20" as="geometry" />
</mxCell>
        <mxCell id="130806691457424" value="" style="whiteSpace=wrap;rounded=0;fillColor=none;strokeColor=none;dashed=0;inherit=default;html=1;strokeWidth=0;" vertex="1" parent="1">
  <mxGeometry x="400" y="80" width="0" height="0" as="geometry" />
</mxCell>
        <mxCell id="130806691457712" value="" style="whiteSpace=wrap;rounded=0;fillColor=none;strokeColor=none;dashed=0;inherit=default;html=1;strokeWidth=0;" vertex="1" parent="1">
  <mxGeometry x="400" y="120" width="0" height="0" as="geometry" />
</mxCell>
        <mxCell id="130806691457856" style="edgeStyle=orthogonalEdgeStyle;orthogonalLoop=1;rounded=0;jettySize=auto;" edge="1" parent="1" source="130806691457712" target="130806691457424">
  <mxGeometry relative="1" as="geometry" />
</mxCell>
        <mxCell id="130806691457904" value="" style="whiteSpace=wrap;rounded=0;fillColor=#6642ae;strokeColor=#6c8ebf;dashed=0;inherit=default;html=1;strokeWidth=0;" vertex="1" parent="1">
  <mxGeometry x="480" y="100" width="40" height="20" as="geometry" />
</mxCell>
        <mxCell id="130806691458672" value="" style="whiteSpace=wrap;rounded=0;fillColor=none;strokeColor=none;dashed=0;inherit=default;html=1;strokeWidth=0;" vertex="1" parent="1">
  <mxGeometry x="480" y="80" width="0" height="0" as="geometry" />
</mxCell>
        <mxCell id="130806691459008" value="" style="whiteSpace=wrap;rounded=0;fillColor=none;strokeColor=none;dashed=0;inherit=default;html=1;strokeWidth=0;" vertex="1" parent="1">
  <mxGeometry x="480" y="120" width="0" height="0" as="geometry" />
</mxCell>
        <mxCell id="130806691459152" style="edgeStyle=orthogonalEdgeStyle;orthogonalLoop=1;rounded=0;jettySize=auto;" edge="1" parent="1" source="130806691459008" target="130806691458672">
  <mxGeometry relative="1" as="geometry" />
</mxCell>
        <mxCell id="130806691459200" value="" style="whiteSpace=wrap;rounded=0;fillColor=#6642ae;strokeColor=#6c8ebf;dashed=0;inherit=default;html=1;strokeWidth=0;" vertex="1" parent="1">
  <mxGeometry x="560" y="100" width="40" height="20" as="geometry" />
</mxCell>
        <mxCell id="130806693496400" value="" style="whiteSpace=wrap;rounded=0;fillColor=none;strokeColor=none;dashed=0;inherit=default;html=1;strokeWidth=0;" vertex="1" parent="1">
  <mxGeometry x="560" y="80" width="0" height="0" as="geometry" />
</mxCell>
        <mxCell id="130806691460256" value="" style="whiteSpace=wrap;rounded=0;fillColor=none;strokeColor=none;dashed=0;inherit=default;html=1;strokeWidth=0;" vertex="1" parent="1">
  <mxGeometry x="560" y="120" width="0" height="0" as="geometry" />
</mxCell>
        <mxCell id="130806691460400" style="edgeStyle=orthogonalEdgeStyle;orthogonalLoop=1;rounded=0;jettySize=auto;" edge="1" parent="1" source="130806691460256" target="130806693496400">
  <mxGeometry relative="1" as="geometry" />
</mxCell>
        <mxCell id="130806691460448" value="" style="whiteSpace=wrap;rounded=0;fillColor=#6642ae;strokeColor=#6c8ebf;dashed=0;inherit=default;html=1;strokeWidth=0;" vertex="1" parent="1">
  <mxGeometry x="640" y="100" width="40" height="20" as="geometry" />
</mxCell>
        <mxCell id="130806691461216" value="" style="whiteSpace=wrap;rounded=0;fillColor=none;strokeColor=none;dashed=0;inherit=default;html=1;strokeWidth=0;" vertex="1" parent="1">
  <mxGeometry x="640" y="80" width="0" height="0" as="geometry" />
</mxCell>
        <mxCell id="130806691461552" value="" style="whiteSpace=wrap;rounded=0;fillColor=none;strokeColor=none;dashed=0;inherit=default;html=1;strokeWidth=0;" vertex="1" parent="1">
  <mxGeometry x="640" y="120" width="0" height="0" as="geometry" />
</mxCell>
        <mxCell id="130806695007760" style="edgeStyle=orthogonalEdgeStyle;orthogonalLoop=1;rounded=0;jettySize=auto;" edge="1" parent="1" source="130806691461552" target="130806691461216">
  <mxGeometry relative="1" as="geometry" />
</mxCell>
        <mxCell id="130806691461696" value="" style="whiteSpace=wrap;rounded=0;fillColor=#6642ae;strokeColor=#6c8ebf;dashed=0;inherit=default;html=1;strokeWidth=0;" vertex="1" parent="1">
  <mxGeometry x="720" y="100" width="40" height="20" as="geometry" />
</mxCell>
        <mxCell id="130806691462464" value="" style="whiteSpace=wrap;rounded=0;fillColor=none;strokeColor=none;dashed=0;inherit=default;html=1;strokeWidth=0;" vertex="1" parent="1">
  <mxGeometry x="720" y="80" width="0" height="0" as="geometry" />
</mxCell>
        <mxCell id="130806691462800" value="" style="whiteSpace=wrap;rounded=0;fillColor=none;strokeColor=none;dashed=0;inherit=default;html=1;strokeWidth=0;" vertex="1" parent="1">
  <mxGeometry x="720" y="120" width="0" height="0" as="geometry" />
</mxCell>
        <mxCell id="130806691462944" style="edgeStyle=orthogonalEdgeStyle;orthogonalLoop=1;rounded=0;jettySize=auto;" edge="1" parent="1" source="130806691462800" target="130806691462464">
  <mxGeometry relative="1" as="geometry" />
</mxCell>
        <mxCell id="130806691462992" value="" style="whiteSpace=wrap;rounded=0;fillColor=#6642ae;strokeColor=#6c8ebf;dashed=0;inherit=default;html=1;strokeWidth=0;" vertex="1" parent="1">
  <mxGeometry x="800" y="100" width="40" height="20" as="geometry" />
</mxCell>
        <mxCell id="130806691529360" value="" style="whiteSpace=wrap;rounded=0;fillColor=none;strokeColor=none;dashed=0;inherit=default;html=1;strokeWidth=0;" vertex="1" parent="1">
  <mxGeometry x="800" y="80" width="0" height="0" as="geometry" />
</mxCell>
        <mxCell id="130806691529648" value="" style="whiteSpace=wrap;rounded=0;fillColor=none;strokeColor=none;dashed=0;inherit=default;html=1;strokeWidth=0;" vertex="1" parent="1">
  <mxGeometry x="800" y="120" width="0" height="0" as="geometry" />
</mxCell>
        <mxCell id="130806691529792" style="edgeStyle=orthogonalEdgeStyle;orthogonalLoop=1;rounded=0;jettySize=auto;" edge="1" parent="1" source="130806691529648" target="130806691529360">
  <mxGeometry relative="1" as="geometry" />
</mxCell>
        <mxCell id="130806691529840" value="" style="whiteSpace=wrap;rounded=0;fillColor=#6642ae;strokeColor=#6c8ebf;dashed=0;inherit=default;html=1;strokeWidth=0;" vertex="1" parent="1">
  <mxGeometry x="880" y="100" width="40" height="20" as="geometry" />
</mxCell>
        <mxCell id="130806691530608" value="" style="whiteSpace=wrap;rounded=0;fillColor=none;strokeColor=none;dashed=0;inherit=default;html=1;strokeWidth=0;" vertex="1" parent="1">
  <mxGeometry x="880" y="80" width="0" height="0" as="geometry" />
</mxCell>
        <mxCell id="130806691530896" value="" style="whiteSpace=wrap;rounded=0;fillColor=none;strokeColor=none;dashed=0;inherit=default;html=1;strokeWidth=0;" vertex="1" parent="1">
  <mxGeometry x="880" y="120" width="0" height="0" as="geometry" />
</mxCell>
        <mxCell id="130806691531040" style="edgeStyle=orthogonalEdgeStyle;orthogonalLoop=1;rounded=0;jettySize=auto;" edge="1" parent="1" source="130806691530896" target="130806691530608">
  <mxGeometry relative="1" as="geometry" />
</mxCell>
        <mxCell id="130806691531088" value="" style="whiteSpace=wrap;rounded=0;fillColor=#6642ae;strokeColor=#6c8ebf;dashed=0;inherit=default;html=1;strokeWidth=0;" vertex="1" parent="1">
  <mxGeometry x="960" y="100" width="40" height="20" as="geometry" />
</mxCell>
        <mxCell id="130806691531808" value="" style="whiteSpace=wrap;rounded=0;fillColor=none;strokeColor=none;dashed=0;inherit=default;html=1;strokeWidth=0;" vertex="1" parent="1">
  <mxGeometry x="960" y="80" width="0" height="0" as="geometry" />
</mxCell>
        <mxCell id="130806691532096" value="" style="whiteSpace=wrap;rounded=0;fillColor=none;strokeColor=none;dashed=0;inherit=default;html=1;strokeWidth=0;" vertex="1" parent="1">
  <mxGeometry x="960" y="120" width="0" height="0" as="geometry" />
</mxCell>
        <mxCell id="130806691532240" style="edgeStyle=orthogonalEdgeStyle;orthogonalLoop=1;rounded=0;jettySize=auto;" edge="1" parent="1" source="130806691532096" target="130806691531808">
  <mxGeometry relative="1" as="geometry" />
</mxCell>
        <mxCell id="130806691532288" value="" style="whiteSpace=wrap;rounded=0;fillColor=#6642ae;strokeColor=#6c8ebf;dashed=0;inherit=default;html=1;strokeWidth=0;" vertex="1" parent="1">
  <mxGeometry x="1040" y="100" width="40" height="20" as="geometry" />
</mxCell>
        <mxCell id="130806691533056" value="" style="whiteSpace=wrap;rounded=0;fillColor=none;strokeColor=none;dashed=0;inherit=default;html=1;strokeWidth=0;" vertex="1" parent="1">
  <mxGeometry x="1040" y="80" width="0" height="0" as="geometry" />
</mxCell>
        <mxCell id="130806691533392" value="" style="whiteSpace=wrap;rounded=0;fillColor=none;strokeColor=none;dashed=0;inherit=default;html=1;strokeWidth=0;" vertex="1" parent="1">
  <mxGeometry x="1040" y="120" width="0" height="0" as="geometry" />
</mxCell>
        <mxCell id="130806691533536" style="edgeStyle=orthogonalEdgeStyle;orthogonalLoop=1;rounded=0;jettySize=auto;" edge="1" parent="1" source="130806691533392" target="130806691533056">
  <mxGeometry relative="1" as="geometry" />
</mxCell>
        <mxCell id="130806691533584" value="" style="whiteSpace=wrap;rounded=0;fillColor=#6642ae;strokeColor=#6c8ebf;dashed=0;inherit=default;html=1;strokeWidth=0;" vertex="1" parent="1">
  <mxGeometry x="1120" y="100" width="40" height="20" as="geometry" />
</mxCell>
        <mxCell id="130806691534352" value="" style="whiteSpace=wrap;rounded=0;fillColor=none;strokeColor=none;dashed=0;inherit=default;html=1;strokeWidth=0;" vertex="1" parent="1">
  <mxGeometry x="1120" y="80" width="0" height="0" as="geometry" />
</mxCell>
        <mxCell id="130806691534688" value="" style="whiteSpace=wrap;rounded=0;fillColor=none;strokeColor=none;dashed=0;inherit=default;html=1;strokeWidth=0;" vertex="1" parent="1">
  <mxGeometry x="1120" y="120" width="0" height="0" as="geometry" />
</mxCell>
        <mxCell id="130806691534832" style="edgeStyle=orthogonalEdgeStyle;orthogonalLoop=1;rounded=0;jettySize=auto;" edge="1" parent="1" source="130806691534688" target="130806691534352">
  <mxGeometry relative="1" as="geometry" />
</mxCell>
        <mxCell id="130806691534880" value="" style="whiteSpace=wrap;rounded=0;fillColor=#6642ae;strokeColor=#6c8ebf;dashed=0;inherit=default;html=1;strokeWidth=0;" vertex="1" parent="1">
  <mxGeometry x="1200" y="100" width="40" height="20" as="geometry" />
</mxCell>
        <mxCell id="130806691535600" value="" style="whiteSpace=wrap;rounded=0;fillColor=none;strokeColor=none;dashed=0;inherit=default;html=1;strokeWidth=0;" vertex="1" parent="1">
  <mxGeometry x="1200" y="80" width="0" height="0" as="geometry" />
</mxCell>
        <mxCell id="130806691535936" value="" style="whiteSpace=wrap;rounded=0;fillColor=none;strokeColor=none;dashed=0;inherit=default;html=1;strokeWidth=0;" vertex="1" parent="1">
  <mxGeometry x="1200" y="120" width="0" height="0" as="geometry" />
</mxCell>
        <mxCell id="130806691536080" style="edgeStyle=orthogonalEdgeStyle;orthogonalLoop=1;rounded=0;jettySize=auto;" edge="1" parent="1" source="130806691535936" target="130806691535600">
  <mxGeometry relative="1" as="geometry" />
</mxCell>
        <mxCell id="130806691536128" value="" style="whiteSpace=wrap;rounded=0;fillColor=#6642ae;strokeColor=#6c8ebf;dashed=0;inherit=default;html=1;strokeWidth=0;" vertex="1" parent="1">
  <mxGeometry x="1280" y="100" width="40" height="20" as="geometry" />
</mxCell>
        <mxCell id="130806691536848" value="" style="whiteSpace=wrap;rounded=0;fillColor=none;strokeColor=none;dashed=0;inherit=default;html=1;strokeWidth=0;" vertex="1" parent="1">
  <mxGeometry x="1280" y="80" width="0" height="0" as="geometry" />
</mxCell>
        <mxCell id="130806691537136" value="" style="whiteSpace=wrap;rounded=0;fillColor=none;strokeColor=none;dashed=0;inherit=default;html=1;strokeWidth=0;" vertex="1" parent="1">
  <mxGeometry x="1280" y="120" width="0" height="0" as="geometry" />
</mxCell>
        <mxCell id="130806691537280" style="edgeStyle=orthogonalEdgeStyle;orthogonalLoop=1;rounded=0;jettySize=auto;" edge="1" parent="1" source="130806691537136" target="130806691536848">
  <mxGeometry relative="1" as="geometry" />
</mxCell>
        <mxCell id="130806691537328" value="" style="whiteSpace=wrap;rounded=0;fillColor=#6642ae;strokeColor=#6c8ebf;dashed=0;inherit=default;html=1;strokeWidth=0;" vertex="1" parent="1">
  <mxGeometry x="1360" y="100" width="40" height="20" as="geometry" />
</mxCell>
        <mxCell id="130806696759888" value="" style="whiteSpace=wrap;rounded=0;fillColor=none;strokeColor=none;dashed=0;inherit=default;html=1;strokeWidth=0;" vertex="1" parent="1">
  <mxGeometry x="1360" y="80" width="0" height="0" as="geometry" />
</mxCell>
        <mxCell id="130806691538288" value="" style="whiteSpace=wrap;rounded=0;fillColor=none;strokeColor=none;dashed=0;inherit=default;html=1;strokeWidth=0;" vertex="1" parent="1">
  <mxGeometry x="1360" y="120" width="0" height="0" as="geometry" />
</mxCell>
        <mxCell id="130806691538432" style="edgeStyle=orthogonalEdgeStyle;orthogonalLoop=1;rounded=0;jettySize=auto;" edge="1" parent="1" source="130806691538288" target="130806696759888">
  <mxGeometry relative="1" as="geometry" />
</mxCell>
        <mxCell id="130806691538480" value="" style="whiteSpace=wrap;rounded=0;fillColor=#6642ae;strokeColor=#6c8ebf;dashed=0;inherit=default;html=1;strokeWidth=0;" vertex="1" parent="1">
  <mxGeometry x="1440" y="100" width="40" height="20" as="geometry" />
</mxCell>
        <mxCell id="130806692832720" value="" style="whiteSpace=wrap;rounded=0;fillColor=none;strokeColor=none;dashed=0;inherit=default;html=1;strokeWidth=0;" vertex="1" parent="1">
  <mxGeometry x="1440" y="80" width="0" height="0" as="geometry" />
</mxCell>
        <mxCell id="130806691539488" value="" style="whiteSpace=wrap;rounded=0;fillColor=none;strokeColor=none;dashed=0;inherit=default;html=1;strokeWidth=0;" vertex="1" parent="1">
  <mxGeometry x="1440" y="120" width="0" height="0" as="geometry" />
</mxCell>
        <mxCell id="130806692569232" style="edgeStyle=orthogonalEdgeStyle;orthogonalLoop=1;rounded=0;jettySize=auto;" edge="1" parent="1" source="130806691539488" target="130806692832720">
  <mxGeometry relative="1" as="geometry" />
</mxCell>
        <mxCell id="130806691539632" value="" style="whiteSpace=wrap;rounded=0;fillColor=#6642ae;strokeColor=#6c8ebf;dashed=0;inherit=default;html=1;strokeWidth=0;" vertex="1" parent="1">
  <mxGeometry x="1520" y="100" width="40" height="20" as="geometry" />
</mxCell>
        <mxCell id="130806691540304" value="" style="whiteSpace=wrap;rounded=0;fillColor=none;strokeColor=none;dashed=0;inherit=default;html=1;strokeWidth=0;" vertex="1" parent="1">
  <mxGeometry x="1520" y="80" width="0" height="0" as="geometry" />
</mxCell>
        <mxCell id="130806691540640" value="" style="whiteSpace=wrap;rounded=0;fillColor=none;strokeColor=none;dashed=0;inherit=default;html=1;strokeWidth=0;" vertex="1" parent="1">
  <mxGeometry x="1520" y="120" width="0" height="0" as="geometry" />
</mxCell>
        <mxCell id="130806691540784" style="edgeStyle=orthogonalEdgeStyle;orthogonalLoop=1;rounded=0;jettySize=auto;" edge="1" parent="1" source="130806691540640" target="130806691540304">
  <mxGeometry relative="1" as="geometry" />
</mxCell>
        <mxCell id="130806691540832" value="" style="whiteSpace=wrap;rounded=0;fillColor=#6642ae;strokeColor=#6c8ebf;dashed=0;inherit=default;html=1;strokeWidth=0;" vertex="1" parent="1">
  <mxGeometry x="1600" y="100" width="40" height="20" as="geometry" />
</mxCell>
        <mxCell id="130806691461264" value="" style="whiteSpace=wrap;rounded=0;fillColor=none;strokeColor=none;dashed=0;inherit=default;html=1;strokeWidth=0;" vertex="1" parent="1">
  <mxGeometry x="1600" y="80" width="0" height="0" as="geometry" />
</mxCell>
        <mxCell id="130806691541840" value="" style="whiteSpace=wrap;rounded=0;fillColor=none;strokeColor=none;dashed=0;inherit=default;html=1;strokeWidth=0;" vertex="1" parent="1">
  <mxGeometry x="1600" y="120" width="0" height="0" as="geometry" />
</mxCell>
        <mxCell id="130806691541984" style="edgeStyle=orthogonalEdgeStyle;orthogonalLoop=1;rounded=0;jettySize=auto;" edge="1" parent="1" source="130806691541840" target="130806691461264">
  <mxGeometry relative="1" as="geometry" />
</mxCell>
        <mxCell id="130806691542032" value="" style="whiteSpace=wrap;rounded=0;fillColor=#6642ae;strokeColor=#6c8ebf;dashed=0;inherit=default;html=1;strokeWidth=0;" vertex="1" parent="1">
  <mxGeometry x="1680" y="100" width="40" height="20" as="geometry" />
</mxCell>
        <mxCell id="130806691542752" value="" style="whiteSpace=wrap;rounded=0;fillColor=none;strokeColor=none;dashed=0;inherit=default;html=1;strokeWidth=0;" vertex="1" parent="1">
  <mxGeometry x="1680" y="80" width="0" height="0" as="geometry" />
</mxCell>
        <mxCell id="130806691543088" value="" style="whiteSpace=wrap;rounded=0;fillColor=none;strokeColor=none;dashed=0;inherit=default;html=1;strokeWidth=0;" vertex="1" parent="1">
  <mxGeometry x="1680" y="120" width="0" height="0" as="geometry" />
</mxCell>
        <mxCell id="130806691543232" style="edgeStyle=orthogonalEdgeStyle;orthogonalLoop=1;rounded=0;jettySize=auto;" edge="1" parent="1" source="130806691543088" target="130806691542752">
  <mxGeometry relative="1" as="geometry" />
</mxCell>
        <mxCell id="130806691543280" value="" style="whiteSpace=wrap;rounded=0;fillColor=#6642ae;strokeColor=#6c8ebf;dashed=0;inherit=default;html=1;strokeWidth=0;" vertex="1" parent="1">
  <mxGeometry x="1760" y="100" width="40" height="20" as="geometry" />
</mxCell>
        <mxCell id="130806691544000" value="" style="whiteSpace=wrap;rounded=0;fillColor=none;strokeColor=none;dashed=0;inherit=default;html=1;strokeWidth=0;" vertex="1" parent="1">
  <mxGeometry x="1760" y="80" width="0" height="0" as="geometry" />
</mxCell>
        <mxCell id="130806691544288" value="" style="whiteSpace=wrap;rounded=0;fillColor=none;strokeColor=none;dashed=0;inherit=default;html=1;strokeWidth=0;" vertex="1" parent="1">
  <mxGeometry x="1760" y="120" width="0" height="0" as="geometry" />
</mxCell>
        <mxCell id="130806691544432" style="edgeStyle=orthogonalEdgeStyle;orthogonalLoop=1;rounded=0;jettySize=auto;" edge="1" parent="1" source="130806691544288" target="130806691544000">
  <mxGeometry relative="1" as="geometry" />
</mxCell>
        <mxCell id="130806691544480" value="" style="whiteSpace=wrap;rounded=0;fillColor=#6642ae;strokeColor=#6c8ebf;dashed=0;inherit=default;html=1;strokeWidth=0;" vertex="1" parent="1">
  <mxGeometry x="1840" y="100" width="40" height="20" as="geometry" />
</mxCell>
        <mxCell id="130806691627184" value="" style="whiteSpace=wrap;rounded=0;fillColor=none;strokeColor=none;dashed=0;inherit=default;html=1;strokeWidth=0;" vertex="1" parent="1">
  <mxGeometry x="1840" y="80" width="0" height="0" as="geometry" />
</mxCell>
        <mxCell id="130806691627472" value="" style="whiteSpace=wrap;rounded=0;fillColor=none;strokeColor=none;dashed=0;inherit=default;html=1;strokeWidth=0;" vertex="1" parent="1">
  <mxGeometry x="1840" y="120" width="0" height="0" as="geometry" />
</mxCell>
        <mxCell id="130806691627616" style="edgeStyle=orthogonalEdgeStyle;orthogonalLoop=1;rounded=0;jettySize=auto;" edge="1" parent="1" source="130806691627472" target="130806691627184">
  <mxGeometry relative="1" as="geometry" />
</mxCell>
        <mxCell id="130806691627664" value="" style="whiteSpace=wrap;rounded=0;fillColor=#6642ae;strokeColor=#6c8ebf;dashed=0;inherit=default;html=1;strokeWidth=0;" vertex="1" parent="1">
  <mxGeometry x="1920" y="100" width="40" height="20" as="geometry" />
</mxCell>
        <mxCell id="130806691628384" value="" style="whiteSpace=wrap;rounded=0;fillColor=none;strokeColor=none;dashed=0;inherit=default;html=1;strokeWidth=0;" vertex="1" parent="1">
  <mxGeometry x="1920" y="80" width="0" height="0" as="geometry" />
</mxCell>
        <mxCell id="130806691628672" value="" style="whiteSpace=wrap;rounded=0;fillColor=none;strokeColor=none;dashed=0;inherit=default;html=1;strokeWidth=0;" vertex="1" parent="1">
  <mxGeometry x="1920" y="120" width="0" height="0" as="geometry" />
</mxCell>
        <mxCell id="130806691628816" style="edgeStyle=orthogonalEdgeStyle;orthogonalLoop=1;rounded=0;jettySize=auto;" edge="1" parent="1" source="130806691628672" target="130806691628384">
  <mxGeometry relative="1" as="geometry" />
</mxCell>
        <mxCell id="130806691628864" value="" style="whiteSpace=wrap;rounded=0;fillColor=#6642ae;strokeColor=#6c8ebf;dashed=0;inherit=default;html=1;strokeWidth=0;" vertex="1" parent="1">
  <mxGeometry x="2000" y="100" width="40" height="20" as="geometry" />
</mxCell>
        <mxCell id="130806691629632" value="" style="whiteSpace=wrap;rounded=0;fillColor=none;strokeColor=none;dashed=0;inherit=default;html=1;strokeWidth=0;" vertex="1" parent="1">
  <mxGeometry x="2000" y="80" width="0" height="0" as="geometry" />
</mxCell>
        <mxCell id="130806691629968" value="" style="whiteSpace=wrap;rounded=0;fillColor=none;strokeColor=none;dashed=0;inherit=default;html=1;strokeWidth=0;" vertex="1" parent="1">
  <mxGeometry x="2000" y="120" width="0" height="0" as="geometry" />
</mxCell>
        <mxCell id="130806691630112" style="edgeStyle=orthogonalEdgeStyle;orthogonalLoop=1;rounded=0;jettySize=auto;" edge="1" parent="1" source="130806691629968" target="130806691629632">
  <mxGeometry relative="1" as="geometry" />
</mxCell>
        <mxCell id="130806691630160" value="" style="whiteSpace=wrap;rounded=0;fillColor=#6642ae;strokeColor=#6c8ebf;dashed=0;inherit=default;html=1;strokeWidth=0;" vertex="1" parent="1">
  <mxGeometry x="2080" y="100" width="40" height="20" as="geometry" />
</mxCell>
        <mxCell id="130806691630928" value="" style="whiteSpace=wrap;rounded=0;fillColor=none;strokeColor=none;dashed=0;inherit=default;html=1;strokeWidth=0;" vertex="1" parent="1">
  <mxGeometry x="2080" y="80" width="0" height="0" as="geometry" />
</mxCell>
        <mxCell id="130806691631264" value="" style="whiteSpace=wrap;rounded=0;fillColor=none;strokeColor=none;dashed=0;inherit=default;html=1;strokeWidth=0;" vertex="1" parent="1">
  <mxGeometry x="2080" y="120" width="0" height="0" as="geometry" />
</mxCell>
        <mxCell id="130806691631408" style="edgeStyle=orthogonalEdgeStyle;orthogonalLoop=1;rounded=0;jettySize=auto;" edge="1" parent="1" source="130806691631264" target="130806691630928">
  <mxGeometry relative="1" as="geometry" />
</mxCell>
        <mxCell id="130806691631456" value="" style="whiteSpace=wrap;rounded=0;fillColor=#6642ae;strokeColor=#6c8ebf;dashed=0;inherit=default;html=1;strokeWidth=0;" vertex="1" parent="1">
  <mxGeometry x="2160" y="100" width="40" height="20" as="geometry" />
</mxCell>
        <mxCell id="130806691632176" value="" style="whiteSpace=wrap;rounded=0;fillColor=none;strokeColor=none;dashed=0;inherit=default;html=1;strokeWidth=0;" vertex="1" parent="1">
  <mxGeometry x="2160" y="80" width="0" height="0" as="geometry" />
</mxCell>
        <mxCell id="130806691632464" value="" style="whiteSpace=wrap;rounded=0;fillColor=none;strokeColor=none;dashed=0;inherit=default;html=1;strokeWidth=0;" vertex="1" parent="1">
  <mxGeometry x="2160" y="120" width="0" height="0" as="geometry" />
</mxCell>
        <mxCell id="130806691632608" style="edgeStyle=orthogonalEdgeStyle;orthogonalLoop=1;rounded=0;jettySize=auto;" edge="1" parent="1" source="130806691632464" target="130806691632176">
  <mxGeometry relative="1" as="geometry" />
</mxCell>
        <mxCell id="130806691632656" value="" style="whiteSpace=wrap;rounded=0;fillColor=#6642ae;strokeColor=#6c8ebf;dashed=0;inherit=default;html=1;strokeWidth=0;" vertex="1" parent="1">
  <mxGeometry x="2240" y="100" width="40" height="20" as="geometry" />
</mxCell>
        <mxCell id="130806691633376" value="" style="whiteSpace=wrap;rounded=0;fillColor=none;strokeColor=none;dashed=0;inherit=default;html=1;strokeWidth=0;" vertex="1" parent="1">
  <mxGeometry x="2240" y="80" width="0" height="0" as="geometry" />
</mxCell>
        <mxCell id="130806691633664" value="" style="whiteSpace=wrap;rounded=0;fillColor=none;strokeColor=none;dashed=0;inherit=default;html=1;strokeWidth=0;" vertex="1" parent="1">
  <mxGeometry x="2240" y="120" width="0" height="0" as="geometry" />
</mxCell>
        <mxCell id="130806691633808" style="edgeStyle=orthogonalEdgeStyle;orthogonalLoop=1;rounded=0;jettySize=auto;" edge="1" parent="1" source="130806691633664" target="130806691633376">
  <mxGeometry relative="1" as="geometry" />
</mxCell>
        <mxCell id="130806691633856" value="" style="whiteSpace=wrap;rounded=0;fillColor=#6642ae;strokeColor=#6c8ebf;dashed=0;inherit=default;html=1;strokeWidth=0;" vertex="1" parent="1">
  <mxGeometry x="2320" y="100" width="40" height="20" as="geometry" />
</mxCell>
        <mxCell id="130806691634528" value="" style="whiteSpace=wrap;rounded=0;fillColor=none;strokeColor=none;dashed=0;inherit=default;html=1;strokeWidth=0;" vertex="1" parent="1">
  <mxGeometry x="2320" y="80" width="0" height="0" as="geometry" />
</mxCell>
        <mxCell id="130806691634816" value="" style="whiteSpace=wrap;rounded=0;fillColor=none;strokeColor=none;dashed=0;inherit=default;html=1;strokeWidth=0;" vertex="1" parent="1">
  <mxGeometry x="2320" y="120" width="0" height="0" as="geometry" />
</mxCell>
        <mxCell id="130806691634960" style="edgeStyle=orthogonalEdgeStyle;orthogonalLoop=1;rounded=0;jettySize=auto;" edge="1" parent="1" source="130806691634816" target="130806691634528">
  <mxGeometry relative="1" as="geometry" />
</mxCell>
        <mxCell id="130806691635008" value="" style="whiteSpace=wrap;rounded=0;fillColor=none;strokeColor=none;dashed=0;inherit=default;html=1;strokeWidth=0;" vertex="1" parent="1">
  <mxGeometry x="2400" y="80" width="0" height="0" as="geometry" />
</mxCell>
        <mxCell id="130806691635728" value="" style="whiteSpace=wrap;rounded=0;fillColor=none;strokeColor=none;dashed=0;inherit=default;html=1;strokeWidth=0;" vertex="1" parent="1">
  <mxGeometry x="2400" y="120" width="0" height="0" as="geometry" />
</mxCell>
        <mxCell id="130806691635872" style="edgeStyle=orthogonalEdgeStyle;orthogonalLoop=1;rounded=0;jettySize=auto;" edge="1" parent="1" source="130806691635728" target="130806691635008">
  <mxGeometry relative="1" as="geometry" />
</mxCell>
        <mxCell id="130806691450992" value="" style="whiteSpace=wrap;rounded=0;fillColor=none;strokeColor=none;dashed=0;inherit=default;html=1;strokeWidth=0;" vertex="1" parent="1">
  <mxGeometry x="0" y="120" width="0" height="0" as="geometry" />
</mxCell>
        <mxCell id="130806691636592" value="" style="whiteSpace=wrap;rounded=0;fillColor=none;strokeColor=none;dashed=0;inherit=default;html=1;strokeWidth=0;" vertex="1" parent="1">
  <mxGeometry x="2400" y="120" width="0" height="0" as="geometry" />
</mxCell>
        <mxCell id="130806691636736" style="edgeStyle=orthogonalEdgeStyle;orthogonalLoop=1;rounded=0;jettySize=auto;endArrow=none;" edge="1" parent="1" source="130806691636592" target="130806691450992">
  <mxGeometry relative="1" as="geometry" />
</mxCell>
        <mxCell id="130806691637456" value="0" style="text;whiteSpace=wrap;rounded=0;dashed=0;inherit=default;" vertex="1" parent="1">
  <mxGeometry x="-5" y="120" width="0" height="0" as="geometry" />
</mxCell>
        <mxCell id="130806691637600" value="1" style="text;whiteSpace=wrap;rounded=0;dashed=0;inherit=default;" vertex="1" parent="1">
  <mxGeometry x="35" y="120" width="0" height="0" as="geometry" />
</mxCell>
        <mxCell id="130806691637792" value="2" style="text;whiteSpace=wrap;rounded=0;dashed=0;inherit=default;" vertex="1" parent="1">
  <mxGeometry x="75" y="120" width="0" height="0" as="geometry" />
</mxCell>
        <mxCell id="130806691637984" value="3" style="text;whiteSpace=wrap;rounded=0;dashed=0;inherit=default;" vertex="1" parent="1">
  <mxGeometry x="115" y="120" width="0" height="0" as="geometry" />
</mxCell>
        <mxCell id="130806691638176" value="4" style="text;whiteSpace=wrap;rounded=0;dashed=0;inherit=default;" vertex="1" parent="1">
  <mxGeometry x="155" y="120" width="0" height="0" as="geometry" />
</mxCell>
        <mxCell id="130806691638368" value="5" style="text;whiteSpace=wrap;rounded=0;dashed=0;inherit=default;" vertex="1" parent="1">
  <mxGeometry x="195" y="120" width="0" height="0" as="geometry" />
</mxCell>
        <mxCell id="130806691638560" value="6" style="text;whiteSpace=wrap;rounded=0;dashed=0;inherit=default;" vertex="1" parent="1">
  <mxGeometry x="235" y="120" width="0" height="0" as="geometry" />
</mxCell>
        <mxCell id="130806691638752" value="7" style="text;whiteSpace=wrap;rounded=0;dashed=0;inherit=default;" vertex="1" parent="1">
  <mxGeometry x="275" y="120" width="0" height="0" as="geometry" />
</mxCell>
        <mxCell id="130806691638944" value="8" style="text;whiteSpace=wrap;rounded=0;dashed=0;inherit=default;" vertex="1" parent="1">
  <mxGeometry x="315" y="120" width="0" height="0" as="geometry" />
</mxCell>
        <mxCell id="130806691639136" value="9" style="text;whiteSpace=wrap;rounded=0;dashed=0;inherit=default;" vertex="1" parent="1">
  <mxGeometry x="355" y="120" width="0" height="0" as="geometry" />
</mxCell>
        <mxCell id="130806691639328" value="10" style="text;whiteSpace=wrap;rounded=0;dashed=0;inherit=default;" vertex="1" parent="1">
  <mxGeometry x="395" y="120" width="0" height="0" as="geometry" />
</mxCell>
        <mxCell id="130806691639520" value="11" style="text;whiteSpace=wrap;rounded=0;dashed=0;inherit=default;" vertex="1" parent="1">
  <mxGeometry x="435" y="120" width="0" height="0" as="geometry" />
</mxCell>
        <mxCell id="130806691639712" value="12" style="text;whiteSpace=wrap;rounded=0;dashed=0;inherit=default;" vertex="1" parent="1">
  <mxGeometry x="475" y="120" width="0" height="0" as="geometry" />
</mxCell>
        <mxCell id="130806691639904" value="13" style="text;whiteSpace=wrap;rounded=0;dashed=0;inherit=default;" vertex="1" parent="1">
  <mxGeometry x="515" y="120" width="0" height="0" as="geometry" />
</mxCell>
        <mxCell id="130806691640096" value="14" style="text;whiteSpace=wrap;rounded=0;dashed=0;inherit=default;" vertex="1" parent="1">
  <mxGeometry x="555" y="120" width="0" height="0" as="geometry" />
</mxCell>
        <mxCell id="130806691640288" value="15" style="text;whiteSpace=wrap;rounded=0;dashed=0;inherit=default;" vertex="1" parent="1">
  <mxGeometry x="595" y="120" width="0" height="0" as="geometry" />
</mxCell>
        <mxCell id="130806691640480" value="16" style="text;whiteSpace=wrap;rounded=0;dashed=0;inherit=default;" vertex="1" parent="1">
  <mxGeometry x="635" y="120" width="0" height="0" as="geometry" />
</mxCell>
        <mxCell id="130806691640672" value="17" style="text;whiteSpace=wrap;rounded=0;dashed=0;inherit=default;" vertex="1" parent="1">
  <mxGeometry x="675" y="120" width="0" height="0" as="geometry" />
</mxCell>
        <mxCell id="130806691640864" value="18" style="text;whiteSpace=wrap;rounded=0;dashed=0;inherit=default;" vertex="1" parent="1">
  <mxGeometry x="715" y="120" width="0" height="0" as="geometry" />
</mxCell>
        <mxCell id="130806691641056" value="19" style="text;whiteSpace=wrap;rounded=0;dashed=0;inherit=default;" vertex="1" parent="1">
  <mxGeometry x="755" y="120" width="0" height="0" as="geometry" />
</mxCell>
        <mxCell id="130806691641248" value="20" style="text;whiteSpace=wrap;rounded=0;dashed=0;inherit=default;" vertex="1" parent="1">
  <mxGeometry x="795" y="120" width="0" height="0" as="geometry" />
</mxCell>
        <mxCell id="130806691641440" value="21" style="text;whiteSpace=wrap;rounded=0;dashed=0;inherit=default;" vertex="1" parent="1">
  <mxGeometry x="835" y="120" width="0" height="0" as="geometry" />
</mxCell>
        <mxCell id="130806691641632" value="22" style="text;whiteSpace=wrap;rounded=0;dashed=0;inherit=default;" vertex="1" parent="1">
  <mxGeometry x="875" y="120" width="0" height="0" as="geometry" />
</mxCell>
        <mxCell id="130806691641824" value="23" style="text;whiteSpace=wrap;rounded=0;dashed=0;inherit=default;" vertex="1" parent="1">
  <mxGeometry x="915" y="120" width="0" height="0" as="geometry" />
</mxCell>
        <mxCell id="130806691642016" value="24" style="text;whiteSpace=wrap;rounded=0;dashed=0;inherit=default;" vertex="1" parent="1">
  <mxGeometry x="955" y="120" width="0" height="0" as="geometry" />
</mxCell>
        <mxCell id="130806691642208" value="25" style="text;whiteSpace=wrap;rounded=0;dashed=0;inherit=default;" vertex="1" parent="1">
  <mxGeometry x="995" y="120" width="0" height="0" as="geometry" />
</mxCell>
        <mxCell id="130806691642400" value="26" style="text;whiteSpace=wrap;rounded=0;dashed=0;inherit=default;" vertex="1" parent="1">
  <mxGeometry x="1035" y="120" width="0" height="0" as="geometry" />
</mxCell>
        <mxCell id="130806691642592" value="27" style="text;whiteSpace=wrap;rounded=0;dashed=0;inherit=default;" vertex="1" parent="1">
  <mxGeometry x="1075" y="120" width="0" height="0" as="geometry" />
</mxCell>
        <mxCell id="130806691642784" value="28" style="text;whiteSpace=wrap;rounded=0;dashed=0;inherit=default;" vertex="1" parent="1">
  <mxGeometry x="1115" y="120" width="0" height="0" as="geometry" />
</mxCell>
        <mxCell id="130806691642976" value="29" style="text;whiteSpace=wrap;rounded=0;dashed=0;inherit=default;" vertex="1" parent="1">
  <mxGeometry x="1155" y="120" width="0" height="0" as="geometry" />
</mxCell>
        <mxCell id="130806691643168" value="30" style="text;whiteSpace=wrap;rounded=0;dashed=0;inherit=default;" vertex="1" parent="1">
  <mxGeometry x="1195" y="120" width="0" height="0" as="geometry" />
</mxCell>
        <mxCell id="130806691643360" value="31" style="text;whiteSpace=wrap;rounded=0;dashed=0;inherit=default;" vertex="1" parent="1">
  <mxGeometry x="1235" y="120" width="0" height="0" as="geometry" />
</mxCell>
        <mxCell id="130806691709152" value="32" style="text;whiteSpace=wrap;rounded=0;dashed=0;inherit=default;" vertex="1" parent="1">
  <mxGeometry x="1275" y="120" width="0" height="0" as="geometry" />
</mxCell>
        <mxCell id="130806691709344" value="33" style="text;whiteSpace=wrap;rounded=0;dashed=0;inherit=default;" vertex="1" parent="1">
  <mxGeometry x="1315" y="120" width="0" height="0" as="geometry" />
</mxCell>
        <mxCell id="130806691709536" value="34" style="text;whiteSpace=wrap;rounded=0;dashed=0;inherit=default;" vertex="1" parent="1">
  <mxGeometry x="1355" y="120" width="0" height="0" as="geometry" />
</mxCell>
        <mxCell id="130806691709728" value="35" style="text;whiteSpace=wrap;rounded=0;dashed=0;inherit=default;" vertex="1" parent="1">
  <mxGeometry x="1395" y="120" width="0" height="0" as="geometry" />
</mxCell>
        <mxCell id="130806691709920" value="36" style="text;whiteSpace=wrap;rounded=0;dashed=0;inherit=default;" vertex="1" parent="1">
  <mxGeometry x="1435" y="120" width="0" height="0" as="geometry" />
</mxCell>
        <mxCell id="130806691710112" value="37" style="text;whiteSpace=wrap;rounded=0;dashed=0;inherit=default;" vertex="1" parent="1">
  <mxGeometry x="1475" y="120" width="0" height="0" as="geometry" />
</mxCell>
        <mxCell id="130806691710304" value="38" style="text;whiteSpace=wrap;rounded=0;dashed=0;inherit=default;" vertex="1" parent="1">
  <mxGeometry x="1515" y="120" width="0" height="0" as="geometry" />
</mxCell>
        <mxCell id="130806691710496" value="39" style="text;whiteSpace=wrap;rounded=0;dashed=0;inherit=default;" vertex="1" parent="1">
  <mxGeometry x="1555" y="120" width="0" height="0" as="geometry" />
</mxCell>
        <mxCell id="130806691710688" value="40" style="text;whiteSpace=wrap;rounded=0;dashed=0;inherit=default;" vertex="1" parent="1">
  <mxGeometry x="1595" y="120" width="0" height="0" as="geometry" />
</mxCell>
        <mxCell id="130806691710880" value="41" style="text;whiteSpace=wrap;rounded=0;dashed=0;inherit=default;" vertex="1" parent="1">
  <mxGeometry x="1635" y="120" width="0" height="0" as="geometry" />
</mxCell>
        <mxCell id="130806691711072" value="42" style="text;whiteSpace=wrap;rounded=0;dashed=0;inherit=default;" vertex="1" parent="1">
  <mxGeometry x="1675" y="120" width="0" height="0" as="geometry" />
</mxCell>
        <mxCell id="130806691711264" value="43" style="text;whiteSpace=wrap;rounded=0;dashed=0;inherit=default;" vertex="1" parent="1">
  <mxGeometry x="1715" y="120" width="0" height="0" as="geometry" />
</mxCell>
        <mxCell id="130806691711456" value="44" style="text;whiteSpace=wrap;rounded=0;dashed=0;inherit=default;" vertex="1" parent="1">
  <mxGeometry x="1755" y="120" width="0" height="0" as="geometry" />
</mxCell>
        <mxCell id="130806691711648" value="45" style="text;whiteSpace=wrap;rounded=0;dashed=0;inherit=default;" vertex="1" parent="1">
  <mxGeometry x="1795" y="120" width="0" height="0" as="geometry" />
</mxCell>
        <mxCell id="130806691711840" value="46" style="text;whiteSpace=wrap;rounded=0;dashed=0;inherit=default;" vertex="1" parent="1">
  <mxGeometry x="1835" y="120" width="0" height="0" as="geometry" />
</mxCell>
        <mxCell id="130806691712032" value="47" style="text;whiteSpace=wrap;rounded=0;dashed=0;inherit=default;" vertex="1" parent="1">
  <mxGeometry x="1875" y="120" width="0" height="0" as="geometry" />
</mxCell>
        <mxCell id="130806691712224" value="48" style="text;whiteSpace=wrap;rounded=0;dashed=0;inherit=default;" vertex="1" parent="1">
  <mxGeometry x="1915" y="120" width="0" height="0" as="geometry" />
</mxCell>
        <mxCell id="130806691712416" value="49" style="text;whiteSpace=wrap;rounded=0;dashed=0;inherit=default;" vertex="1" parent="1">
  <mxGeometry x="1955" y="120" width="0" height="0" as="geometry" />
</mxCell>
        <mxCell id="130806691712608" value="50" style="text;whiteSpace=wrap;rounded=0;dashed=0;inherit=default;" vertex="1" parent="1">
  <mxGeometry x="1995" y="120" width="0" height="0" as="geometry" />
</mxCell>
        <mxCell id="130806691712800" value="51" style="text;whiteSpace=wrap;rounded=0;dashed=0;inherit=default;" vertex="1" parent="1">
  <mxGeometry x="2035" y="120" width="0" height="0" as="geometry" />
</mxCell>
        <mxCell id="130806691712992" value="52" style="text;whiteSpace=wrap;rounded=0;dashed=0;inherit=default;" vertex="1" parent="1">
  <mxGeometry x="2075" y="120" width="0" height="0" as="geometry" />
</mxCell>
        <mxCell id="130806691713184" value="53" style="text;whiteSpace=wrap;rounded=0;dashed=0;inherit=default;" vertex="1" parent="1">
  <mxGeometry x="2115" y="120" width="0" height="0" as="geometry" />
</mxCell>
        <mxCell id="130806691713376" value="54" style="text;whiteSpace=wrap;rounded=0;dashed=0;inherit=default;" vertex="1" parent="1">
  <mxGeometry x="2155" y="120" width="0" height="0" as="geometry" />
</mxCell>
        <mxCell id="130806691713568" value="55" style="text;whiteSpace=wrap;rounded=0;dashed=0;inherit=default;" vertex="1" parent="1">
  <mxGeometry x="2195" y="120" width="0" height="0" as="geometry" />
</mxCell>
        <mxCell id="130806691713760" value="56" style="text;whiteSpace=wrap;rounded=0;dashed=0;inherit=default;" vertex="1" parent="1">
  <mxGeometry x="2235" y="120" width="0" height="0" as="geometry" />
</mxCell>
        <mxCell id="130806691713952" value="57" style="text;whiteSpace=wrap;rounded=0;dashed=0;inherit=default;" vertex="1" parent="1">
  <mxGeometry x="2275" y="120" width="0" height="0" as="geometry" />
</mxCell>
        <mxCell id="130806691714144" value="58" style="text;whiteSpace=wrap;rounded=0;dashed=0;inherit=default;" vertex="1" parent="1">
  <mxGeometry x="2315" y="120" width="0" height="0" as="geometry" />
</mxCell>
        <mxCell id="130806691714336" value="59" style="text;whiteSpace=wrap;rounded=0;dashed=0;inherit=default;" vertex="1" parent="1">
  <mxGeometry x="2355" y="120" width="0" height="0" as="geometry" />
</mxCell>
        <mxCell id="130806691714528" value="60" style="text;whiteSpace=wrap;rounded=0;dashed=0;inherit=default;" vertex="1" parent="1">
  <mxGeometry x="2395" y="120" width="0" height="0" as="geometry" />
</mxCell>
        <mxCell id="130806691714672" value="$$\tau_2: T=2, C=1$$" style="text;whiteSpace=wrap;rounded=0;dashed=0;inherit=default;" vertex="1" parent="1">
  <mxGeometry x="-120" y="95" width="120" height="40" as="geometry" />
</mxCell>
        <mxCell id="130806691340144" value="" style="whiteSpace=wrap;rounded=0;fillColor=#b885a3;strokeColor=#6c8ebf;dashed=0;inherit=default;html=1;strokeWidth=0;" vertex="1" parent="1">
  <mxGeometry x="0" y="180" width="80" height="20" as="geometry" />
</mxCell>
        <mxCell id="130806691715008" value="" style="whiteSpace=wrap;rounded=0;fillColor=none;strokeColor=none;dashed=0;inherit=default;html=1;strokeWidth=0;" vertex="1" parent="1">
  <mxGeometry x="0" y="160" width="0" height="0" as="geometry" />
</mxCell>
        <mxCell id="130806691715344" value="" style="whiteSpace=wrap;rounded=0;fillColor=none;strokeColor=none;dashed=0;inherit=default;html=1;strokeWidth=0;" vertex="1" parent="1">
  <mxGeometry x="0" y="200" width="0" height="0" as="geometry" />
</mxCell>
        <mxCell id="130806691715488" style="edgeStyle=orthogonalEdgeStyle;orthogonalLoop=1;rounded=0;jettySize=auto;" edge="1" parent="1" source="130806691715344" target="130806691715008">
  <mxGeometry relative="1" as="geometry" />
</mxCell>
        <mxCell id="130806691715536" value="" style="whiteSpace=wrap;rounded=0;fillColor=#b885a3;strokeColor=#6c8ebf;dashed=0;inherit=default;html=1;strokeWidth=0;" vertex="1" parent="1">
  <mxGeometry x="120" y="180" width="80" height="20" as="geometry" />
</mxCell>
        <mxCell id="130806691716304" value="" style="whiteSpace=wrap;rounded=0;fillColor=none;strokeColor=none;dashed=0;inherit=default;html=1;strokeWidth=0;" vertex="1" parent="1">
  <mxGeometry x="120" y="160" width="0" height="0" as="geometry" />
</mxCell>
        <mxCell id="130806691716640" value="" style="whiteSpace=wrap;rounded=0;fillColor=none;strokeColor=none;dashed=0;inherit=default;html=1;strokeWidth=0;" vertex="1" parent="1">
  <mxGeometry x="120" y="200" width="0" height="0" as="geometry" />
</mxCell>
        <mxCell id="130806691716784" style="edgeStyle=orthogonalEdgeStyle;orthogonalLoop=1;rounded=0;jettySize=auto;" edge="1" parent="1" source="130806691716640" target="130806691716304">
  <mxGeometry relative="1" as="geometry" />
</mxCell>
        <mxCell id="130806691716832" value="" style="whiteSpace=wrap;rounded=0;fillColor=#b885a3;strokeColor=#6c8ebf;dashed=0;inherit=default;html=1;strokeWidth=0;" vertex="1" parent="1">
  <mxGeometry x="240" y="180" width="80" height="20" as="geometry" />
</mxCell>
        <mxCell id="130806691717504" value="" style="whiteSpace=wrap;rounded=0;fillColor=none;strokeColor=none;dashed=0;inherit=default;html=1;strokeWidth=0;" vertex="1" parent="1">
  <mxGeometry x="240" y="160" width="0" height="0" as="geometry" />
</mxCell>
        <mxCell id="130806691717840" value="" style="whiteSpace=wrap;rounded=0;fillColor=none;strokeColor=none;dashed=0;inherit=default;html=1;strokeWidth=0;" vertex="1" parent="1">
  <mxGeometry x="240" y="200" width="0" height="0" as="geometry" />
</mxCell>
        <mxCell id="130806691717984" style="edgeStyle=orthogonalEdgeStyle;orthogonalLoop=1;rounded=0;jettySize=auto;" edge="1" parent="1" source="130806691717840" target="130806691717504">
  <mxGeometry relative="1" as="geometry" />
</mxCell>
        <mxCell id="130806691718032" value="" style="whiteSpace=wrap;rounded=0;fillColor=#b885a3;strokeColor=#6c8ebf;dashed=0;inherit=default;html=1;strokeWidth=0;" vertex="1" parent="1">
  <mxGeometry x="360" y="180" width="80" height="20" as="geometry" />
</mxCell>
        <mxCell id="130806691718800" value="" style="whiteSpace=wrap;rounded=0;fillColor=none;strokeColor=none;dashed=0;inherit=default;html=1;strokeWidth=0;" vertex="1" parent="1">
  <mxGeometry x="360" y="160" width="0" height="0" as="geometry" />
</mxCell>
        <mxCell id="130806691719136" value="" style="whiteSpace=wrap;rounded=0;fillColor=none;strokeColor=none;dashed=0;inherit=default;html=1;strokeWidth=0;" vertex="1" parent="1">
  <mxGeometry x="360" y="200" width="0" height="0" as="geometry" />
</mxCell>
        <mxCell id="130806691719280" style="edgeStyle=orthogonalEdgeStyle;orthogonalLoop=1;rounded=0;jettySize=auto;" edge="1" parent="1" source="130806691719136" target="130806691718800">
  <mxGeometry relative="1" as="geometry" />
</mxCell>
        <mxCell id="130806691719328" value="" style="whiteSpace=wrap;rounded=0;fillColor=#b885a3;strokeColor=#6c8ebf;dashed=0;inherit=default;html=1;strokeWidth=0;" vertex="1" parent="1">
  <mxGeometry x="480" y="180" width="80" height="20" as="geometry" />
</mxCell>
        <mxCell id="130806691720048" value="" style="whiteSpace=wrap;rounded=0;fillColor=none;strokeColor=none;dashed=0;inherit=default;html=1;strokeWidth=0;" vertex="1" parent="1">
  <mxGeometry x="480" y="160" width="0" height="0" as="geometry" />
</mxCell>
        <mxCell id="130806691720336" value="" style="whiteSpace=wrap;rounded=0;fillColor=none;strokeColor=none;dashed=0;inherit=default;html=1;strokeWidth=0;" vertex="1" parent="1">
  <mxGeometry x="480" y="200" width="0" height="0" as="geometry" />
</mxCell>
        <mxCell id="130806691720480" style="edgeStyle=orthogonalEdgeStyle;orthogonalLoop=1;rounded=0;jettySize=auto;" edge="1" parent="1" source="130806691720336" target="130806691720048">
  <mxGeometry relative="1" as="geometry" />
</mxCell>
        <mxCell id="130806691720528" value="" style="whiteSpace=wrap;rounded=0;fillColor=#b885a3;strokeColor=#6c8ebf;dashed=0;inherit=default;html=1;strokeWidth=0;" vertex="1" parent="1">
  <mxGeometry x="600" y="180" width="80" height="20" as="geometry" />
</mxCell>
        <mxCell id="130806691721296" value="" style="whiteSpace=wrap;rounded=0;fillColor=none;strokeColor=none;dashed=0;inherit=default;html=1;strokeWidth=0;" vertex="1" parent="1">
  <mxGeometry x="600" y="160" width="0" height="0" as="geometry" />
</mxCell>
        <mxCell id="130806691721632" value="" style="whiteSpace=wrap;rounded=0;fillColor=none;strokeColor=none;dashed=0;inherit=default;html=1;strokeWidth=0;" vertex="1" parent="1">
  <mxGeometry x="600" y="200" width="0" height="0" as="geometry" />
</mxCell>
        <mxCell id="130806691721776" style="edgeStyle=orthogonalEdgeStyle;orthogonalLoop=1;rounded=0;jettySize=auto;" edge="1" parent="1" source="130806691721632" target="130806691721296">
  <mxGeometry relative="1" as="geometry" />
</mxCell>
        <mxCell id="130806691721824" value="" style="whiteSpace=wrap;rounded=0;fillColor=#b885a3;strokeColor=#6c8ebf;dashed=0;inherit=default;html=1;strokeWidth=0;" vertex="1" parent="1">
  <mxGeometry x="720" y="180" width="80" height="20" as="geometry" />
</mxCell>
        <mxCell id="130806691722592" value="" style="whiteSpace=wrap;rounded=0;fillColor=none;strokeColor=none;dashed=0;inherit=default;html=1;strokeWidth=0;" vertex="1" parent="1">
  <mxGeometry x="720" y="160" width="0" height="0" as="geometry" />
</mxCell>
        <mxCell id="130806691722880" value="" style="whiteSpace=wrap;rounded=0;fillColor=none;strokeColor=none;dashed=0;inherit=default;html=1;strokeWidth=0;" vertex="1" parent="1">
  <mxGeometry x="720" y="200" width="0" height="0" as="geometry" />
</mxCell>
        <mxCell id="130806691723024" style="edgeStyle=orthogonalEdgeStyle;orthogonalLoop=1;rounded=0;jettySize=auto;" edge="1" parent="1" source="130806691722880" target="130806691722592">
  <mxGeometry relative="1" as="geometry" />
</mxCell>
        <mxCell id="130806691723072" value="" style="whiteSpace=wrap;rounded=0;fillColor=#b885a3;strokeColor=#6c8ebf;dashed=0;inherit=default;html=1;strokeWidth=0;" vertex="1" parent="1">
  <mxGeometry x="840" y="180" width="80" height="20" as="geometry" />
</mxCell>
        <mxCell id="130806691723792" value="" style="whiteSpace=wrap;rounded=0;fillColor=none;strokeColor=none;dashed=0;inherit=default;html=1;strokeWidth=0;" vertex="1" parent="1">
  <mxGeometry x="840" y="160" width="0" height="0" as="geometry" />
</mxCell>
        <mxCell id="130806691724080" value="" style="whiteSpace=wrap;rounded=0;fillColor=none;strokeColor=none;dashed=0;inherit=default;html=1;strokeWidth=0;" vertex="1" parent="1">
  <mxGeometry x="840" y="200" width="0" height="0" as="geometry" />
</mxCell>
        <mxCell id="130806691724224" style="edgeStyle=orthogonalEdgeStyle;orthogonalLoop=1;rounded=0;jettySize=auto;" edge="1" parent="1" source="130806691724080" target="130806691723792">
  <mxGeometry relative="1" as="geometry" />
</mxCell>
        <mxCell id="130806691724272" value="" style="whiteSpace=wrap;rounded=0;fillColor=#b885a3;strokeColor=#6c8ebf;dashed=0;inherit=default;html=1;strokeWidth=0;" vertex="1" parent="1">
  <mxGeometry x="960" y="180" width="80" height="20" as="geometry" />
</mxCell>
        <mxCell id="130806691724992" value="" style="whiteSpace=wrap;rounded=0;fillColor=none;strokeColor=none;dashed=0;inherit=default;html=1;strokeWidth=0;" vertex="1" parent="1">
  <mxGeometry x="960" y="160" width="0" height="0" as="geometry" />
</mxCell>
        <mxCell id="130806691725280" value="" style="whiteSpace=wrap;rounded=0;fillColor=none;strokeColor=none;dashed=0;inherit=default;html=1;strokeWidth=0;" vertex="1" parent="1">
  <mxGeometry x="960" y="200" width="0" height="0" as="geometry" />
</mxCell>
        <mxCell id="130806691823792" style="edgeStyle=orthogonalEdgeStyle;orthogonalLoop=1;rounded=0;jettySize=auto;" edge="1" parent="1" source="130806691725280" target="130806691724992">
  <mxGeometry relative="1" as="geometry" />
</mxCell>
        <mxCell id="130806691823840" value="" style="whiteSpace=wrap;rounded=0;fillColor=#b885a3;strokeColor=#6c8ebf;dashed=0;inherit=default;html=1;strokeWidth=0;" vertex="1" parent="1">
  <mxGeometry x="1080" y="180" width="80" height="20" as="geometry" />
</mxCell>
        <mxCell id="130806691824608" value="" style="whiteSpace=wrap;rounded=0;fillColor=none;strokeColor=none;dashed=0;inherit=default;html=1;strokeWidth=0;" vertex="1" parent="1">
  <mxGeometry x="1080" y="160" width="0" height="0" as="geometry" />
</mxCell>
        <mxCell id="130806691824944" value="" style="whiteSpace=wrap;rounded=0;fillColor=none;strokeColor=none;dashed=0;inherit=default;html=1;strokeWidth=0;" vertex="1" parent="1">
  <mxGeometry x="1080" y="200" width="0" height="0" as="geometry" />
</mxCell>
        <mxCell id="130806691825088" style="edgeStyle=orthogonalEdgeStyle;orthogonalLoop=1;rounded=0;jettySize=auto;" edge="1" parent="1" source="130806691824944" target="130806691824608">
  <mxGeometry relative="1" as="geometry" />
</mxCell>
        <mxCell id="130806691825136" value="" style="whiteSpace=wrap;rounded=0;fillColor=#b885a3;strokeColor=#6c8ebf;dashed=0;inherit=default;html=1;strokeWidth=0;" vertex="1" parent="1">
  <mxGeometry x="1200" y="180" width="80" height="20" as="geometry" />
</mxCell>
        <mxCell id="130806691825856" value="" style="whiteSpace=wrap;rounded=0;fillColor=none;strokeColor=none;dashed=0;inherit=default;html=1;strokeWidth=0;" vertex="1" parent="1">
  <mxGeometry x="1200" y="160" width="0" height="0" as="geometry" />
</mxCell>
        <mxCell id="130806691826192" value="" style="whiteSpace=wrap;rounded=0;fillColor=none;strokeColor=none;dashed=0;inherit=default;html=1;strokeWidth=0;" vertex="1" parent="1">
  <mxGeometry x="1200" y="200" width="0" height="0" as="geometry" />
</mxCell>
        <mxCell id="130806691826336" style="edgeStyle=orthogonalEdgeStyle;orthogonalLoop=1;rounded=0;jettySize=auto;" edge="1" parent="1" source="130806691826192" target="130806691825856">
  <mxGeometry relative="1" as="geometry" />
</mxCell>
        <mxCell id="130806691826384" value="" style="whiteSpace=wrap;rounded=0;fillColor=#b885a3;strokeColor=#6c8ebf;dashed=0;inherit=default;html=1;strokeWidth=0;" vertex="1" parent="1">
  <mxGeometry x="1320" y="180" width="80" height="20" as="geometry" />
</mxCell>
        <mxCell id="130806691827152" value="" style="whiteSpace=wrap;rounded=0;fillColor=none;strokeColor=none;dashed=0;inherit=default;html=1;strokeWidth=0;" vertex="1" parent="1">
  <mxGeometry x="1320" y="160" width="0" height="0" as="geometry" />
</mxCell>
        <mxCell id="130806691827488" value="" style="whiteSpace=wrap;rounded=0;fillColor=none;strokeColor=none;dashed=0;inherit=default;html=1;strokeWidth=0;" vertex="1" parent="1">
  <mxGeometry x="1320" y="200" width="0" height="0" as="geometry" />
</mxCell>
        <mxCell id="130806691827632" style="edgeStyle=orthogonalEdgeStyle;orthogonalLoop=1;rounded=0;jettySize=auto;" edge="1" parent="1" source="130806691827488" target="130806691827152">
  <mxGeometry relative="1" as="geometry" />
</mxCell>
        <mxCell id="130806691827680" value="" style="whiteSpace=wrap;rounded=0;fillColor=#b885a3;strokeColor=#6c8ebf;dashed=0;inherit=default;html=1;strokeWidth=0;" vertex="1" parent="1">
  <mxGeometry x="1440" y="180" width="80" height="20" as="geometry" />
</mxCell>
        <mxCell id="130806691828352" value="" style="whiteSpace=wrap;rounded=0;fillColor=none;strokeColor=none;dashed=0;inherit=default;html=1;strokeWidth=0;" vertex="1" parent="1">
  <mxGeometry x="1440" y="160" width="0" height="0" as="geometry" />
</mxCell>
        <mxCell id="130806691828688" value="" style="whiteSpace=wrap;rounded=0;fillColor=none;strokeColor=none;dashed=0;inherit=default;html=1;strokeWidth=0;" vertex="1" parent="1">
  <mxGeometry x="1440" y="200" width="0" height="0" as="geometry" />
</mxCell>
        <mxCell id="130806691828832" style="edgeStyle=orthogonalEdgeStyle;orthogonalLoop=1;rounded=0;jettySize=auto;" edge="1" parent="1" source="130806691828688" target="130806691828352">
  <mxGeometry relative="1" as="geometry" />
</mxCell>
        <mxCell id="130806691828880" value="" style="whiteSpace=wrap;rounded=0;fillColor=#b885a3;strokeColor=#6c8ebf;dashed=0;inherit=default;html=1;strokeWidth=0;" vertex="1" parent="1">
  <mxGeometry x="1560" y="180" width="80" height="20" as="geometry" />
</mxCell>
        <mxCell id="130806691829648" value="" style="whiteSpace=wrap;rounded=0;fillColor=none;strokeColor=none;dashed=0;inherit=default;html=1;strokeWidth=0;" vertex="1" parent="1">
  <mxGeometry x="1560" y="160" width="0" height="0" as="geometry" />
</mxCell>
        <mxCell id="130806691829984" value="" style="whiteSpace=wrap;rounded=0;fillColor=none;strokeColor=none;dashed=0;inherit=default;html=1;strokeWidth=0;" vertex="1" parent="1">
  <mxGeometry x="1560" y="200" width="0" height="0" as="geometry" />
</mxCell>
        <mxCell id="130806691830128" style="edgeStyle=orthogonalEdgeStyle;orthogonalLoop=1;rounded=0;jettySize=auto;" edge="1" parent="1" source="130806691829984" target="130806691829648">
  <mxGeometry relative="1" as="geometry" />
</mxCell>
        <mxCell id="130806691830176" value="" style="whiteSpace=wrap;rounded=0;fillColor=#b885a3;strokeColor=#6c8ebf;dashed=0;inherit=default;html=1;strokeWidth=0;" vertex="1" parent="1">
  <mxGeometry x="1680" y="180" width="80" height="20" as="geometry" />
</mxCell>
        <mxCell id="130806691830896" value="" style="whiteSpace=wrap;rounded=0;fillColor=none;strokeColor=none;dashed=0;inherit=default;html=1;strokeWidth=0;" vertex="1" parent="1">
  <mxGeometry x="1680" y="160" width="0" height="0" as="geometry" />
</mxCell>
        <mxCell id="130806691831232" value="" style="whiteSpace=wrap;rounded=0;fillColor=none;strokeColor=none;dashed=0;inherit=default;html=1;strokeWidth=0;" vertex="1" parent="1">
  <mxGeometry x="1680" y="200" width="0" height="0" as="geometry" />
</mxCell>
        <mxCell id="130806691633904" style="edgeStyle=orthogonalEdgeStyle;orthogonalLoop=1;rounded=0;jettySize=auto;" edge="1" parent="1" source="130806691831232" target="130806691830896">
  <mxGeometry relative="1" as="geometry" />
</mxCell>
        <mxCell id="130806691831376" value="" style="whiteSpace=wrap;rounded=0;fillColor=#b885a3;strokeColor=#6c8ebf;dashed=0;inherit=default;html=1;strokeWidth=0;" vertex="1" parent="1">
  <mxGeometry x="1800" y="180" width="80" height="20" as="geometry" />
</mxCell>
        <mxCell id="130806691832096" value="" style="whiteSpace=wrap;rounded=0;fillColor=none;strokeColor=none;dashed=0;inherit=default;html=1;strokeWidth=0;" vertex="1" parent="1">
  <mxGeometry x="1800" y="160" width="0" height="0" as="geometry" />
</mxCell>
        <mxCell id="130806691832384" value="" style="whiteSpace=wrap;rounded=0;fillColor=none;strokeColor=none;dashed=0;inherit=default;html=1;strokeWidth=0;" vertex="1" parent="1">
  <mxGeometry x="1800" y="200" width="0" height="0" as="geometry" />
</mxCell>
        <mxCell id="130806691340912" style="edgeStyle=orthogonalEdgeStyle;orthogonalLoop=1;rounded=0;jettySize=auto;" edge="1" parent="1" source="130806691832384" target="130806691832096">
  <mxGeometry relative="1" as="geometry" />
</mxCell>
        <mxCell id="130806691832576" value="" style="whiteSpace=wrap;rounded=0;fillColor=#b885a3;strokeColor=#6c8ebf;dashed=0;inherit=default;html=1;strokeWidth=0;" vertex="1" parent="1">
  <mxGeometry x="1920" y="180" width="80" height="20" as="geometry" />
</mxCell>
        <mxCell id="130806691833248" value="" style="whiteSpace=wrap;rounded=0;fillColor=none;strokeColor=none;dashed=0;inherit=default;html=1;strokeWidth=0;" vertex="1" parent="1">
  <mxGeometry x="1920" y="160" width="0" height="0" as="geometry" />
</mxCell>
        <mxCell id="130806691833584" value="" style="whiteSpace=wrap;rounded=0;fillColor=none;strokeColor=none;dashed=0;inherit=default;html=1;strokeWidth=0;" vertex="1" parent="1">
  <mxGeometry x="1920" y="200" width="0" height="0" as="geometry" />
</mxCell>
        <mxCell id="130806691539728" style="edgeStyle=orthogonalEdgeStyle;orthogonalLoop=1;rounded=0;jettySize=auto;" edge="1" parent="1" source="130806691833584" target="130806691833248">
  <mxGeometry relative="1" as="geometry" />
</mxCell>
        <mxCell id="130806691833728" value="" style="whiteSpace=wrap;rounded=0;fillColor=#b885a3;strokeColor=#6c8ebf;dashed=0;inherit=default;html=1;strokeWidth=0;" vertex="1" parent="1">
  <mxGeometry x="2040" y="180" width="80" height="20" as="geometry" />
</mxCell>
        <mxCell id="130806691834400" value="" style="whiteSpace=wrap;rounded=0;fillColor=none;strokeColor=none;dashed=0;inherit=default;html=1;strokeWidth=0;" vertex="1" parent="1">
  <mxGeometry x="2040" y="160" width="0" height="0" as="geometry" />
</mxCell>
        <mxCell id="130806691834688" value="" style="whiteSpace=wrap;rounded=0;fillColor=none;strokeColor=none;dashed=0;inherit=default;html=1;strokeWidth=0;" vertex="1" parent="1">
  <mxGeometry x="2040" y="200" width="0" height="0" as="geometry" />
</mxCell>
        <mxCell id="130806691834832" style="edgeStyle=orthogonalEdgeStyle;orthogonalLoop=1;rounded=0;jettySize=auto;" edge="1" parent="1" source="130806691834688" target="130806691834400">
  <mxGeometry relative="1" as="geometry" />
</mxCell>
        <mxCell id="130806691834880" value="" style="whiteSpace=wrap;rounded=0;fillColor=#b885a3;strokeColor=#6c8ebf;dashed=0;inherit=default;html=1;strokeWidth=0;" vertex="1" parent="1">
  <mxGeometry x="2160" y="180" width="80" height="20" as="geometry" />
</mxCell>
        <mxCell id="130806691835600" value="" style="whiteSpace=wrap;rounded=0;fillColor=none;strokeColor=none;dashed=0;inherit=default;html=1;strokeWidth=0;" vertex="1" parent="1">
  <mxGeometry x="2160" y="160" width="0" height="0" as="geometry" />
</mxCell>
        <mxCell id="130806691835888" value="" style="whiteSpace=wrap;rounded=0;fillColor=none;strokeColor=none;dashed=0;inherit=default;html=1;strokeWidth=0;" vertex="1" parent="1">
  <mxGeometry x="2160" y="200" width="0" height="0" as="geometry" />
</mxCell>
        <mxCell id="130806691836032" style="edgeStyle=orthogonalEdgeStyle;orthogonalLoop=1;rounded=0;jettySize=auto;" edge="1" parent="1" source="130806691835888" target="130806691835600">
  <mxGeometry relative="1" as="geometry" />
</mxCell>
        <mxCell id="130806691836080" value="" style="whiteSpace=wrap;rounded=0;fillColor=#b885a3;strokeColor=#6c8ebf;dashed=0;inherit=default;html=1;strokeWidth=0;" vertex="1" parent="1">
  <mxGeometry x="2280" y="180" width="80" height="20" as="geometry" />
</mxCell>
        <mxCell id="130806691836800" value="" style="whiteSpace=wrap;rounded=0;fillColor=none;strokeColor=none;dashed=0;inherit=default;html=1;strokeWidth=0;" vertex="1" parent="1">
  <mxGeometry x="2280" y="160" width="0" height="0" as="geometry" />
</mxCell>
        <mxCell id="130806691837088" value="" style="whiteSpace=wrap;rounded=0;fillColor=none;strokeColor=none;dashed=0;inherit=default;html=1;strokeWidth=0;" vertex="1" parent="1">
  <mxGeometry x="2280" y="200" width="0" height="0" as="geometry" />
</mxCell>
        <mxCell id="130806691837232" style="edgeStyle=orthogonalEdgeStyle;orthogonalLoop=1;rounded=0;jettySize=auto;" edge="1" parent="1" source="130806691837088" target="130806691836800">
  <mxGeometry relative="1" as="geometry" />
</mxCell>
        <mxCell id="130806691837280" value="" style="whiteSpace=wrap;rounded=0;fillColor=none;strokeColor=none;dashed=0;inherit=default;html=1;strokeWidth=0;" vertex="1" parent="1">
  <mxGeometry x="2400" y="160" width="0" height="0" as="geometry" />
</mxCell>
        <mxCell id="130806691837904" value="" style="whiteSpace=wrap;rounded=0;fillColor=none;strokeColor=none;dashed=0;inherit=default;html=1;strokeWidth=0;" vertex="1" parent="1">
  <mxGeometry x="2400" y="200" width="0" height="0" as="geometry" />
</mxCell>
        <mxCell id="130806691838048" style="edgeStyle=orthogonalEdgeStyle;orthogonalLoop=1;rounded=0;jettySize=auto;" edge="1" parent="1" source="130806691837904" target="130806691837280">
  <mxGeometry relative="1" as="geometry" />
</mxCell>
        <mxCell id="130806691714816" value="" style="whiteSpace=wrap;rounded=0;fillColor=none;strokeColor=none;dashed=0;inherit=default;html=1;strokeWidth=0;" vertex="1" parent="1">
  <mxGeometry x="0" y="200" width="0" height="0" as="geometry" />
</mxCell>
        <mxCell id="130806691838720" value="" style="whiteSpace=wrap;rounded=0;fillColor=none;strokeColor=none;dashed=0;inherit=default;html=1;strokeWidth=0;" vertex="1" parent="1">
  <mxGeometry x="2400" y="200" width="0" height="0" as="geometry" />
</mxCell>
        <mxCell id="130806691838864" style="edgeStyle=orthogonalEdgeStyle;orthogonalLoop=1;rounded=0;jettySize=auto;endArrow=none;" edge="1" parent="1" source="130806691838720" target="130806691714816">
  <mxGeometry relative="1" as="geometry" />
</mxCell>
        <mxCell id="130806691839632" value="0" style="text;whiteSpace=wrap;rounded=0;dashed=0;inherit=default;" vertex="1" parent="1">
  <mxGeometry x="-5" y="200" width="0" height="0" as="geometry" />
</mxCell>
        <mxCell id="130806691839824" value="1" style="text;whiteSpace=wrap;rounded=0;dashed=0;inherit=default;" vertex="1" parent="1">
  <mxGeometry x="35" y="200" width="0" height="0" as="geometry" />
</mxCell>
        <mxCell id="130806691905616" value="2" style="text;whiteSpace=wrap;rounded=0;dashed=0;inherit=default;" vertex="1" parent="1">
  <mxGeometry x="75" y="200" width="0" height="0" as="geometry" />
</mxCell>
        <mxCell id="130806691905808" value="3" style="text;whiteSpace=wrap;rounded=0;dashed=0;inherit=default;" vertex="1" parent="1">
  <mxGeometry x="115" y="200" width="0" height="0" as="geometry" />
</mxCell>
        <mxCell id="130806691906000" value="4" style="text;whiteSpace=wrap;rounded=0;dashed=0;inherit=default;" vertex="1" parent="1">
  <mxGeometry x="155" y="200" width="0" height="0" as="geometry" />
</mxCell>
        <mxCell id="130806691906192" value="5" style="text;whiteSpace=wrap;rounded=0;dashed=0;inherit=default;" vertex="1" parent="1">
  <mxGeometry x="195" y="200" width="0" height="0" as="geometry" />
</mxCell>
        <mxCell id="130806691906384" value="6" style="text;whiteSpace=wrap;rounded=0;dashed=0;inherit=default;" vertex="1" parent="1">
  <mxGeometry x="235" y="200" width="0" height="0" as="geometry" />
</mxCell>
        <mxCell id="130806691906576" value="7" style="text;whiteSpace=wrap;rounded=0;dashed=0;inherit=default;" vertex="1" parent="1">
  <mxGeometry x="275" y="200" width="0" height="0" as="geometry" />
</mxCell>
        <mxCell id="130806691906768" value="8" style="text;whiteSpace=wrap;rounded=0;dashed=0;inherit=default;" vertex="1" parent="1">
  <mxGeometry x="315" y="200" width="0" height="0" as="geometry" />
</mxCell>
        <mxCell id="130806691906960" value="9" style="text;whiteSpace=wrap;rounded=0;dashed=0;inherit=default;" vertex="1" parent="1">
  <mxGeometry x="355" y="200" width="0" height="0" as="geometry" />
</mxCell>
        <mxCell id="130806691907152" value="10" style="text;whiteSpace=wrap;rounded=0;dashed=0;inherit=default;" vertex="1" parent="1">
  <mxGeometry x="395" y="200" width="0" height="0" as="geometry" />
</mxCell>
        <mxCell id="130806691907344" value="11" style="text;whiteSpace=wrap;rounded=0;dashed=0;inherit=default;" vertex="1" parent="1">
  <mxGeometry x="435" y="200" width="0" height="0" as="geometry" />
</mxCell>
        <mxCell id="130806691907536" value="12" style="text;whiteSpace=wrap;rounded=0;dashed=0;inherit=default;" vertex="1" parent="1">
  <mxGeometry x="475" y="200" width="0" height="0" as="geometry" />
</mxCell>
        <mxCell id="130806691907728" value="13" style="text;whiteSpace=wrap;rounded=0;dashed=0;inherit=default;" vertex="1" parent="1">
  <mxGeometry x="515" y="200" width="0" height="0" as="geometry" />
</mxCell>
        <mxCell id="130806691907920" value="14" style="text;whiteSpace=wrap;rounded=0;dashed=0;inherit=default;" vertex="1" parent="1">
  <mxGeometry x="555" y="200" width="0" height="0" as="geometry" />
</mxCell>
        <mxCell id="130806691908112" value="15" style="text;whiteSpace=wrap;rounded=0;dashed=0;inherit=default;" vertex="1" parent="1">
  <mxGeometry x="595" y="200" width="0" height="0" as="geometry" />
</mxCell>
        <mxCell id="130806691908304" value="16" style="text;whiteSpace=wrap;rounded=0;dashed=0;inherit=default;" vertex="1" parent="1">
  <mxGeometry x="635" y="200" width="0" height="0" as="geometry" />
</mxCell>
        <mxCell id="130806691908496" value="17" style="text;whiteSpace=wrap;rounded=0;dashed=0;inherit=default;" vertex="1" parent="1">
  <mxGeometry x="675" y="200" width="0" height="0" as="geometry" />
</mxCell>
        <mxCell id="130806691908688" value="18" style="text;whiteSpace=wrap;rounded=0;dashed=0;inherit=default;" vertex="1" parent="1">
  <mxGeometry x="715" y="200" width="0" height="0" as="geometry" />
</mxCell>
        <mxCell id="130806691908880" value="19" style="text;whiteSpace=wrap;rounded=0;dashed=0;inherit=default;" vertex="1" parent="1">
  <mxGeometry x="755" y="200" width="0" height="0" as="geometry" />
</mxCell>
        <mxCell id="130806691909072" value="20" style="text;whiteSpace=wrap;rounded=0;dashed=0;inherit=default;" vertex="1" parent="1">
  <mxGeometry x="795" y="200" width="0" height="0" as="geometry" />
</mxCell>
        <mxCell id="130806691909264" value="21" style="text;whiteSpace=wrap;rounded=0;dashed=0;inherit=default;" vertex="1" parent="1">
  <mxGeometry x="835" y="200" width="0" height="0" as="geometry" />
</mxCell>
        <mxCell id="130806691909456" value="22" style="text;whiteSpace=wrap;rounded=0;dashed=0;inherit=default;" vertex="1" parent="1">
  <mxGeometry x="875" y="200" width="0" height="0" as="geometry" />
</mxCell>
        <mxCell id="130806691909648" value="23" style="text;whiteSpace=wrap;rounded=0;dashed=0;inherit=default;" vertex="1" parent="1">
  <mxGeometry x="915" y="200" width="0" height="0" as="geometry" />
</mxCell>
        <mxCell id="130806691909840" value="24" style="text;whiteSpace=wrap;rounded=0;dashed=0;inherit=default;" vertex="1" parent="1">
  <mxGeometry x="955" y="200" width="0" height="0" as="geometry" />
</mxCell>
        <mxCell id="130806691910032" value="25" style="text;whiteSpace=wrap;rounded=0;dashed=0;inherit=default;" vertex="1" parent="1">
  <mxGeometry x="995" y="200" width="0" height="0" as="geometry" />
</mxCell>
        <mxCell id="130806691910224" value="26" style="text;whiteSpace=wrap;rounded=0;dashed=0;inherit=default;" vertex="1" parent="1">
  <mxGeometry x="1035" y="200" width="0" height="0" as="geometry" />
</mxCell>
        <mxCell id="130806691910416" value="27" style="text;whiteSpace=wrap;rounded=0;dashed=0;inherit=default;" vertex="1" parent="1">
  <mxGeometry x="1075" y="200" width="0" height="0" as="geometry" />
</mxCell>
        <mxCell id="130806691910608" value="28" style="text;whiteSpace=wrap;rounded=0;dashed=0;inherit=default;" vertex="1" parent="1">
  <mxGeometry x="1115" y="200" width="0" height="0" as="geometry" />
</mxCell>
        <mxCell id="130806691910800" value="29" style="text;whiteSpace=wrap;rounded=0;dashed=0;inherit=default;" vertex="1" parent="1">
  <mxGeometry x="1155" y="200" width="0" height="0" as="geometry" />
</mxCell>
        <mxCell id="130806691910992" value="30" style="text;whiteSpace=wrap;rounded=0;dashed=0;inherit=default;" vertex="1" parent="1">
  <mxGeometry x="1195" y="200" width="0" height="0" as="geometry" />
</mxCell>
        <mxCell id="130806691911184" value="31" style="text;whiteSpace=wrap;rounded=0;dashed=0;inherit=default;" vertex="1" parent="1">
  <mxGeometry x="1235" y="200" width="0" height="0" as="geometry" />
</mxCell>
        <mxCell id="130806691911376" value="32" style="text;whiteSpace=wrap;rounded=0;dashed=0;inherit=default;" vertex="1" parent="1">
  <mxGeometry x="1275" y="200" width="0" height="0" as="geometry" />
</mxCell>
        <mxCell id="130806691911568" value="33" style="text;whiteSpace=wrap;rounded=0;dashed=0;inherit=default;" vertex="1" parent="1">
  <mxGeometry x="1315" y="200" width="0" height="0" as="geometry" />
</mxCell>
        <mxCell id="130806691911760" value="34" style="text;whiteSpace=wrap;rounded=0;dashed=0;inherit=default;" vertex="1" parent="1">
  <mxGeometry x="1355" y="200" width="0" height="0" as="geometry" />
</mxCell>
        <mxCell id="130806691911952" value="35" style="text;whiteSpace=wrap;rounded=0;dashed=0;inherit=default;" vertex="1" parent="1">
  <mxGeometry x="1395" y="200" width="0" height="0" as="geometry" />
</mxCell>
        <mxCell id="130806691912144" value="36" style="text;whiteSpace=wrap;rounded=0;dashed=0;inherit=default;" vertex="1" parent="1">
  <mxGeometry x="1435" y="200" width="0" height="0" as="geometry" />
</mxCell>
        <mxCell id="130806691912336" value="37" style="text;whiteSpace=wrap;rounded=0;dashed=0;inherit=default;" vertex="1" parent="1">
  <mxGeometry x="1475" y="200" width="0" height="0" as="geometry" />
</mxCell>
        <mxCell id="130806691912528" value="38" style="text;whiteSpace=wrap;rounded=0;dashed=0;inherit=default;" vertex="1" parent="1">
  <mxGeometry x="1515" y="200" width="0" height="0" as="geometry" />
</mxCell>
        <mxCell id="130806691912720" value="39" style="text;whiteSpace=wrap;rounded=0;dashed=0;inherit=default;" vertex="1" parent="1">
  <mxGeometry x="1555" y="200" width="0" height="0" as="geometry" />
</mxCell>
        <mxCell id="130806691912912" value="40" style="text;whiteSpace=wrap;rounded=0;dashed=0;inherit=default;" vertex="1" parent="1">
  <mxGeometry x="1595" y="200" width="0" height="0" as="geometry" />
</mxCell>
        <mxCell id="130806691913104" value="41" style="text;whiteSpace=wrap;rounded=0;dashed=0;inherit=default;" vertex="1" parent="1">
  <mxGeometry x="1635" y="200" width="0" height="0" as="geometry" />
</mxCell>
        <mxCell id="130806691913296" value="42" style="text;whiteSpace=wrap;rounded=0;dashed=0;inherit=default;" vertex="1" parent="1">
  <mxGeometry x="1675" y="200" width="0" height="0" as="geometry" />
</mxCell>
        <mxCell id="130806691913488" value="43" style="text;whiteSpace=wrap;rounded=0;dashed=0;inherit=default;" vertex="1" parent="1">
  <mxGeometry x="1715" y="200" width="0" height="0" as="geometry" />
</mxCell>
        <mxCell id="130806691913680" value="44" style="text;whiteSpace=wrap;rounded=0;dashed=0;inherit=default;" vertex="1" parent="1">
  <mxGeometry x="1755" y="200" width="0" height="0" as="geometry" />
</mxCell>
        <mxCell id="130806691913872" value="45" style="text;whiteSpace=wrap;rounded=0;dashed=0;inherit=default;" vertex="1" parent="1">
  <mxGeometry x="1795" y="200" width="0" height="0" as="geometry" />
</mxCell>
        <mxCell id="130806691914064" value="46" style="text;whiteSpace=wrap;rounded=0;dashed=0;inherit=default;" vertex="1" parent="1">
  <mxGeometry x="1835" y="200" width="0" height="0" as="geometry" />
</mxCell>
        <mxCell id="130806691914256" value="47" style="text;whiteSpace=wrap;rounded=0;dashed=0;inherit=default;" vertex="1" parent="1">
  <mxGeometry x="1875" y="200" width="0" height="0" as="geometry" />
</mxCell>
        <mxCell id="130806691914448" value="48" style="text;whiteSpace=wrap;rounded=0;dashed=0;inherit=default;" vertex="1" parent="1">
  <mxGeometry x="1915" y="200" width="0" height="0" as="geometry" />
</mxCell>
        <mxCell id="130806691914640" value="49" style="text;whiteSpace=wrap;rounded=0;dashed=0;inherit=default;" vertex="1" parent="1">
  <mxGeometry x="1955" y="200" width="0" height="0" as="geometry" />
</mxCell>
        <mxCell id="130806691914832" value="50" style="text;whiteSpace=wrap;rounded=0;dashed=0;inherit=default;" vertex="1" parent="1">
  <mxGeometry x="1995" y="200" width="0" height="0" as="geometry" />
</mxCell>
        <mxCell id="130806691915024" value="51" style="text;whiteSpace=wrap;rounded=0;dashed=0;inherit=default;" vertex="1" parent="1">
  <mxGeometry x="2035" y="200" width="0" height="0" as="geometry" />
</mxCell>
        <mxCell id="130806691915216" value="52" style="text;whiteSpace=wrap;rounded=0;dashed=0;inherit=default;" vertex="1" parent="1">
  <mxGeometry x="2075" y="200" width="0" height="0" as="geometry" />
</mxCell>
        <mxCell id="130806691915408" value="53" style="text;whiteSpace=wrap;rounded=0;dashed=0;inherit=default;" vertex="1" parent="1">
  <mxGeometry x="2115" y="200" width="0" height="0" as="geometry" />
</mxCell>
        <mxCell id="130806691915600" value="54" style="text;whiteSpace=wrap;rounded=0;dashed=0;inherit=default;" vertex="1" parent="1">
  <mxGeometry x="2155" y="200" width="0" height="0" as="geometry" />
</mxCell>
        <mxCell id="130806691915792" value="55" style="text;whiteSpace=wrap;rounded=0;dashed=0;inherit=default;" vertex="1" parent="1">
  <mxGeometry x="2195" y="200" width="0" height="0" as="geometry" />
</mxCell>
        <mxCell id="130806691915984" value="56" style="text;whiteSpace=wrap;rounded=0;dashed=0;inherit=default;" vertex="1" parent="1">
  <mxGeometry x="2235" y="200" width="0" height="0" as="geometry" />
</mxCell>
        <mxCell id="130806691916176" value="57" style="text;whiteSpace=wrap;rounded=0;dashed=0;inherit=default;" vertex="1" parent="1">
  <mxGeometry x="2275" y="200" width="0" height="0" as="geometry" />
</mxCell>
        <mxCell id="130806691916368" value="58" style="text;whiteSpace=wrap;rounded=0;dashed=0;inherit=default;" vertex="1" parent="1">
  <mxGeometry x="2315" y="200" width="0" height="0" as="geometry" />
</mxCell>
        <mxCell id="130806691916560" value="59" style="text;whiteSpace=wrap;rounded=0;dashed=0;inherit=default;" vertex="1" parent="1">
  <mxGeometry x="2355" y="200" width="0" height="0" as="geometry" />
</mxCell>
        <mxCell id="130806691916752" value="60" style="text;whiteSpace=wrap;rounded=0;dashed=0;inherit=default;" vertex="1" parent="1">
  <mxGeometry x="2395" y="200" width="0" height="0" as="geometry" />
</mxCell>
        <mxCell id="130806691916896" value="$$\tau_3: T=3, C=2$$" style="text;whiteSpace=wrap;rounded=0;dashed=0;inherit=default;" vertex="1" parent="1">
  <mxGeometry x="-120" y="175" width="120" height="40" as="geometry" />
</mxCell>
        <mxCell id="130806691829168" value="" style="whiteSpace=wrap;rounded=0;fillColor=#405d4d;strokeColor=#6c8ebf;dashed=0;inherit=default;html=1;strokeWidth=0;" vertex="1" parent="1">
  <mxGeometry x="0" y="260" width="200" height="20" as="geometry" />
</mxCell>
        <mxCell id="130806691917184" value="" style="whiteSpace=wrap;rounded=0;fillColor=none;strokeColor=none;dashed=0;inherit=default;html=1;strokeWidth=0;" vertex="1" parent="1">
  <mxGeometry x="0" y="240" width="0" height="0" as="geometry" />
</mxCell>
        <mxCell id="130806691917520" value="" style="whiteSpace=wrap;rounded=0;fillColor=none;strokeColor=none;dashed=0;inherit=default;html=1;strokeWidth=0;" vertex="1" parent="1">
  <mxGeometry x="0" y="280" width="0" height="0" as="geometry" />
</mxCell>
        <mxCell id="130806691917664" style="edgeStyle=orthogonalEdgeStyle;orthogonalLoop=1;rounded=0;jettySize=auto;" edge="1" parent="1" source="130806691917520" target="130806691917184">
  <mxGeometry relative="1" as="geometry" />
</mxCell>
        <mxCell id="130806691917712" value="" style="whiteSpace=wrap;rounded=0;fillColor=#405d4d;strokeColor=#6c8ebf;dashed=0;inherit=default;html=1;strokeWidth=0;" vertex="1" parent="1">
  <mxGeometry x="400" y="260" width="200" height="20" as="geometry" />
</mxCell>
        <mxCell id="130806691918336" value="" style="whiteSpace=wrap;rounded=0;fillColor=none;strokeColor=none;dashed=0;inherit=default;html=1;strokeWidth=0;" vertex="1" parent="1">
  <mxGeometry x="400" y="240" width="0" height="0" as="geometry" />
</mxCell>
        <mxCell id="130806691918672" value="" style="whiteSpace=wrap;rounded=0;fillColor=none;strokeColor=none;dashed=0;inherit=default;html=1;strokeWidth=0;" vertex="1" parent="1">
  <mxGeometry x="400" y="280" width="0" height="0" as="geometry" />
</mxCell>
        <mxCell id="130806691918816" style="edgeStyle=orthogonalEdgeStyle;orthogonalLoop=1;rounded=0;jettySize=auto;" edge="1" parent="1" source="130806691918672" target="130806691918336">
  <mxGeometry relative="1" as="geometry" />
</mxCell>
        <mxCell id="130806691918864" value="" style="whiteSpace=wrap;rounded=0;fillColor=#405d4d;strokeColor=#6c8ebf;dashed=0;inherit=default;html=1;strokeWidth=0;" vertex="1" parent="1">
  <mxGeometry x="800" y="260" width="200" height="20" as="geometry" />
</mxCell>
        <mxCell id="130806691919584" value="" style="whiteSpace=wrap;rounded=0;fillColor=none;strokeColor=none;dashed=0;inherit=default;html=1;strokeWidth=0;" vertex="1" parent="1">
  <mxGeometry x="800" y="240" width="0" height="0" as="geometry" />
</mxCell>
        <mxCell id="130806691919872" value="" style="whiteSpace=wrap;rounded=0;fillColor=none;strokeColor=none;dashed=0;inherit=default;html=1;strokeWidth=0;" vertex="1" parent="1">
  <mxGeometry x="800" y="280" width="0" height="0" as="geometry" />
</mxCell>
        <mxCell id="130806691823888" style="edgeStyle=orthogonalEdgeStyle;orthogonalLoop=1;rounded=0;jettySize=auto;" edge="1" parent="1" source="130806691919872" target="130806691919584">
  <mxGeometry relative="1" as="geometry" />
</mxCell>
        <mxCell id="130806691920016" value="" style="whiteSpace=wrap;rounded=0;fillColor=#405d4d;strokeColor=#6c8ebf;dashed=0;inherit=default;html=1;strokeWidth=0;" vertex="1" parent="1">
  <mxGeometry x="1200" y="260" width="200" height="20" as="geometry" />
</mxCell>
        <mxCell id="130806691920736" value="" style="whiteSpace=wrap;rounded=0;fillColor=none;strokeColor=none;dashed=0;inherit=default;html=1;strokeWidth=0;" vertex="1" parent="1">
  <mxGeometry x="1200" y="240" width="0" height="0" as="geometry" />
</mxCell>
        <mxCell id="130806691921024" value="" style="whiteSpace=wrap;rounded=0;fillColor=none;strokeColor=none;dashed=0;inherit=default;html=1;strokeWidth=0;" vertex="1" parent="1">
  <mxGeometry x="1200" y="280" width="0" height="0" as="geometry" />
</mxCell>
        <mxCell id="130806691921168" style="edgeStyle=orthogonalEdgeStyle;orthogonalLoop=1;rounded=0;jettySize=auto;" edge="1" parent="1" source="130806691921024" target="130806691920736">
  <mxGeometry relative="1" as="geometry" />
</mxCell>
        <mxCell id="130806691921216" value="" style="whiteSpace=wrap;rounded=0;fillColor=#405d4d;strokeColor=#6c8ebf;dashed=0;inherit=default;html=1;strokeWidth=0;" vertex="1" parent="1">
  <mxGeometry x="1600" y="260" width="200" height="20" as="geometry" />
</mxCell>
        <mxCell id="130806692020352" value="" style="whiteSpace=wrap;rounded=0;fillColor=none;strokeColor=none;dashed=0;inherit=default;html=1;strokeWidth=0;" vertex="1" parent="1">
  <mxGeometry x="1600" y="240" width="0" height="0" as="geometry" />
</mxCell>
        <mxCell id="130806692020592" value="" style="whiteSpace=wrap;rounded=0;fillColor=none;strokeColor=none;dashed=0;inherit=default;html=1;strokeWidth=0;" vertex="1" parent="1">
  <mxGeometry x="1600" y="280" width="0" height="0" as="geometry" />
</mxCell>
        <mxCell id="130806692020736" style="edgeStyle=orthogonalEdgeStyle;orthogonalLoop=1;rounded=0;jettySize=auto;" edge="1" parent="1" source="130806692020592" target="130806692020352">
  <mxGeometry relative="1" as="geometry" />
</mxCell>
        <mxCell id="130806692020784" value="" style="whiteSpace=wrap;rounded=0;fillColor=#405d4d;strokeColor=#6c8ebf;dashed=0;inherit=default;html=1;strokeWidth=0;" vertex="1" parent="1">
  <mxGeometry x="2000" y="260" width="200" height="20" as="geometry" />
</mxCell>
        <mxCell id="130806692021456" value="" style="whiteSpace=wrap;rounded=0;fillColor=none;strokeColor=none;dashed=0;inherit=default;html=1;strokeWidth=0;" vertex="1" parent="1">
  <mxGeometry x="2000" y="240" width="0" height="0" as="geometry" />
</mxCell>
        <mxCell id="130806692021792" value="" style="whiteSpace=wrap;rounded=0;fillColor=none;strokeColor=none;dashed=0;inherit=default;html=1;strokeWidth=0;" vertex="1" parent="1">
  <mxGeometry x="2000" y="280" width="0" height="0" as="geometry" />
</mxCell>
        <mxCell id="130806692021936" style="edgeStyle=orthogonalEdgeStyle;orthogonalLoop=1;rounded=0;jettySize=auto;" edge="1" parent="1" source="130806692021792" target="130806692021456">
  <mxGeometry relative="1" as="geometry" />
</mxCell>
        <mxCell id="130806692021984" value="" style="whiteSpace=wrap;rounded=0;fillColor=none;strokeColor=none;dashed=0;inherit=default;html=1;strokeWidth=0;" vertex="1" parent="1">
  <mxGeometry x="2400" y="240" width="0" height="0" as="geometry" />
</mxCell>
        <mxCell id="130806692022608" value="" style="whiteSpace=wrap;rounded=0;fillColor=none;strokeColor=none;dashed=0;inherit=default;html=1;strokeWidth=0;" vertex="1" parent="1">
  <mxGeometry x="2400" y="280" width="0" height="0" as="geometry" />
</mxCell>
        <mxCell id="130806692022752" style="edgeStyle=orthogonalEdgeStyle;orthogonalLoop=1;rounded=0;jettySize=auto;" edge="1" parent="1" source="130806692022608" target="130806692021984">
  <mxGeometry relative="1" as="geometry" />
</mxCell>
        <mxCell id="130806691636784" value="" style="whiteSpace=wrap;rounded=0;fillColor=none;strokeColor=none;dashed=0;inherit=default;html=1;strokeWidth=0;" vertex="1" parent="1">
  <mxGeometry x="0" y="280" width="0" height="0" as="geometry" />
</mxCell>
        <mxCell id="130806692023328" value="" style="whiteSpace=wrap;rounded=0;fillColor=none;strokeColor=none;dashed=0;inherit=default;html=1;strokeWidth=0;" vertex="1" parent="1">
  <mxGeometry x="2400" y="280" width="0" height="0" as="geometry" />
</mxCell>
        <mxCell id="130806692023472" style="edgeStyle=orthogonalEdgeStyle;orthogonalLoop=1;rounded=0;jettySize=auto;endArrow=none;" edge="1" parent="1" source="130806692023328" target="130806691636784">
  <mxGeometry relative="1" as="geometry" />
</mxCell>
        <mxCell id="130806692024240" value="0" style="text;whiteSpace=wrap;rounded=0;dashed=0;inherit=default;" vertex="1" parent="1">
  <mxGeometry x="-5" y="280" width="0" height="0" as="geometry" />
</mxCell>
        <mxCell id="130806692024432" value="1" style="text;whiteSpace=wrap;rounded=0;dashed=0;inherit=default;" vertex="1" parent="1">
  <mxGeometry x="35" y="280" width="0" height="0" as="geometry" />
</mxCell>
        <mxCell id="130806692024624" value="2" style="text;whiteSpace=wrap;rounded=0;dashed=0;inherit=default;" vertex="1" parent="1">
  <mxGeometry x="75" y="280" width="0" height="0" as="geometry" />
</mxCell>
        <mxCell id="130806692024816" value="3" style="text;whiteSpace=wrap;rounded=0;dashed=0;inherit=default;" vertex="1" parent="1">
  <mxGeometry x="115" y="280" width="0" height="0" as="geometry" />
</mxCell>
        <mxCell id="130806692025008" value="4" style="text;whiteSpace=wrap;rounded=0;dashed=0;inherit=default;" vertex="1" parent="1">
  <mxGeometry x="155" y="280" width="0" height="0" as="geometry" />
</mxCell>
        <mxCell id="130806692025200" value="5" style="text;whiteSpace=wrap;rounded=0;dashed=0;inherit=default;" vertex="1" parent="1">
  <mxGeometry x="195" y="280" width="0" height="0" as="geometry" />
</mxCell>
        <mxCell id="130806692025392" value="6" style="text;whiteSpace=wrap;rounded=0;dashed=0;inherit=default;" vertex="1" parent="1">
  <mxGeometry x="235" y="280" width="0" height="0" as="geometry" />
</mxCell>
        <mxCell id="130806692025584" value="7" style="text;whiteSpace=wrap;rounded=0;dashed=0;inherit=default;" vertex="1" parent="1">
  <mxGeometry x="275" y="280" width="0" height="0" as="geometry" />
</mxCell>
        <mxCell id="130806692025776" value="8" style="text;whiteSpace=wrap;rounded=0;dashed=0;inherit=default;" vertex="1" parent="1">
  <mxGeometry x="315" y="280" width="0" height="0" as="geometry" />
</mxCell>
        <mxCell id="130806692025968" value="9" style="text;whiteSpace=wrap;rounded=0;dashed=0;inherit=default;" vertex="1" parent="1">
  <mxGeometry x="355" y="280" width="0" height="0" as="geometry" />
</mxCell>
        <mxCell id="130806692026160" value="10" style="text;whiteSpace=wrap;rounded=0;dashed=0;inherit=default;" vertex="1" parent="1">
  <mxGeometry x="395" y="280" width="0" height="0" as="geometry" />
</mxCell>
        <mxCell id="130806692026352" value="11" style="text;whiteSpace=wrap;rounded=0;dashed=0;inherit=default;" vertex="1" parent="1">
  <mxGeometry x="435" y="280" width="0" height="0" as="geometry" />
</mxCell>
        <mxCell id="130806692026544" value="12" style="text;whiteSpace=wrap;rounded=0;dashed=0;inherit=default;" vertex="1" parent="1">
  <mxGeometry x="475" y="280" width="0" height="0" as="geometry" />
</mxCell>
        <mxCell id="130806692026736" value="13" style="text;whiteSpace=wrap;rounded=0;dashed=0;inherit=default;" vertex="1" parent="1">
  <mxGeometry x="515" y="280" width="0" height="0" as="geometry" />
</mxCell>
        <mxCell id="130806692026928" value="14" style="text;whiteSpace=wrap;rounded=0;dashed=0;inherit=default;" vertex="1" parent="1">
  <mxGeometry x="555" y="280" width="0" height="0" as="geometry" />
</mxCell>
        <mxCell id="130806692027120" value="15" style="text;whiteSpace=wrap;rounded=0;dashed=0;inherit=default;" vertex="1" parent="1">
  <mxGeometry x="595" y="280" width="0" height="0" as="geometry" />
</mxCell>
        <mxCell id="130806692027312" value="16" style="text;whiteSpace=wrap;rounded=0;dashed=0;inherit=default;" vertex="1" parent="1">
  <mxGeometry x="635" y="280" width="0" height="0" as="geometry" />
</mxCell>
        <mxCell id="130806692027504" value="17" style="text;whiteSpace=wrap;rounded=0;dashed=0;inherit=default;" vertex="1" parent="1">
  <mxGeometry x="675" y="280" width="0" height="0" as="geometry" />
</mxCell>
        <mxCell id="130806692027696" value="18" style="text;whiteSpace=wrap;rounded=0;dashed=0;inherit=default;" vertex="1" parent="1">
  <mxGeometry x="715" y="280" width="0" height="0" as="geometry" />
</mxCell>
        <mxCell id="130806692027888" value="19" style="text;whiteSpace=wrap;rounded=0;dashed=0;inherit=default;" vertex="1" parent="1">
  <mxGeometry x="755" y="280" width="0" height="0" as="geometry" />
</mxCell>
        <mxCell id="130806692028080" value="20" style="text;whiteSpace=wrap;rounded=0;dashed=0;inherit=default;" vertex="1" parent="1">
  <mxGeometry x="795" y="280" width="0" height="0" as="geometry" />
</mxCell>
        <mxCell id="130806692028272" value="21" style="text;whiteSpace=wrap;rounded=0;dashed=0;inherit=default;" vertex="1" parent="1">
  <mxGeometry x="835" y="280" width="0" height="0" as="geometry" />
</mxCell>
        <mxCell id="130806692028464" value="22" style="text;whiteSpace=wrap;rounded=0;dashed=0;inherit=default;" vertex="1" parent="1">
  <mxGeometry x="875" y="280" width="0" height="0" as="geometry" />
</mxCell>
        <mxCell id="130806692028656" value="23" style="text;whiteSpace=wrap;rounded=0;dashed=0;inherit=default;" vertex="1" parent="1">
  <mxGeometry x="915" y="280" width="0" height="0" as="geometry" />
</mxCell>
        <mxCell id="130806692028848" value="24" style="text;whiteSpace=wrap;rounded=0;dashed=0;inherit=default;" vertex="1" parent="1">
  <mxGeometry x="955" y="280" width="0" height="0" as="geometry" />
</mxCell>
        <mxCell id="130806692029040" value="25" style="text;whiteSpace=wrap;rounded=0;dashed=0;inherit=default;" vertex="1" parent="1">
  <mxGeometry x="995" y="280" width="0" height="0" as="geometry" />
</mxCell>
        <mxCell id="130806692029232" value="26" style="text;whiteSpace=wrap;rounded=0;dashed=0;inherit=default;" vertex="1" parent="1">
  <mxGeometry x="1035" y="280" width="0" height="0" as="geometry" />
</mxCell>
        <mxCell id="130806692029424" value="27" style="text;whiteSpace=wrap;rounded=0;dashed=0;inherit=default;" vertex="1" parent="1">
  <mxGeometry x="1075" y="280" width="0" height="0" as="geometry" />
</mxCell>
        <mxCell id="130806692029616" value="28" style="text;whiteSpace=wrap;rounded=0;dashed=0;inherit=default;" vertex="1" parent="1">
  <mxGeometry x="1115" y="280" width="0" height="0" as="geometry" />
</mxCell>
        <mxCell id="130806692029808" value="29" style="text;whiteSpace=wrap;rounded=0;dashed=0;inherit=default;" vertex="1" parent="1">
  <mxGeometry x="1155" y="280" width="0" height="0" as="geometry" />
</mxCell>
        <mxCell id="130806692030000" value="30" style="text;whiteSpace=wrap;rounded=0;dashed=0;inherit=default;" vertex="1" parent="1">
  <mxGeometry x="1195" y="280" width="0" height="0" as="geometry" />
</mxCell>
        <mxCell id="130806692030192" value="31" style="text;whiteSpace=wrap;rounded=0;dashed=0;inherit=default;" vertex="1" parent="1">
  <mxGeometry x="1235" y="280" width="0" height="0" as="geometry" />
</mxCell>
        <mxCell id="130806692030384" value="32" style="text;whiteSpace=wrap;rounded=0;dashed=0;inherit=default;" vertex="1" parent="1">
  <mxGeometry x="1275" y="280" width="0" height="0" as="geometry" />
</mxCell>
        <mxCell id="130806692030576" value="33" style="text;whiteSpace=wrap;rounded=0;dashed=0;inherit=default;" vertex="1" parent="1">
  <mxGeometry x="1315" y="280" width="0" height="0" as="geometry" />
</mxCell>
        <mxCell id="130806692030768" value="34" style="text;whiteSpace=wrap;rounded=0;dashed=0;inherit=default;" vertex="1" parent="1">
  <mxGeometry x="1355" y="280" width="0" height="0" as="geometry" />
</mxCell>
        <mxCell id="130806692030960" value="35" style="text;whiteSpace=wrap;rounded=0;dashed=0;inherit=default;" vertex="1" parent="1">
  <mxGeometry x="1395" y="280" width="0" height="0" as="geometry" />
</mxCell>
        <mxCell id="130806692031152" value="36" style="text;whiteSpace=wrap;rounded=0;dashed=0;inherit=default;" vertex="1" parent="1">
  <mxGeometry x="1435" y="280" width="0" height="0" as="geometry" />
</mxCell>
        <mxCell id="130806692031344" value="37" style="text;whiteSpace=wrap;rounded=0;dashed=0;inherit=default;" vertex="1" parent="1">
  <mxGeometry x="1475" y="280" width="0" height="0" as="geometry" />
</mxCell>
        <mxCell id="130806692031536" value="38" style="text;whiteSpace=wrap;rounded=0;dashed=0;inherit=default;" vertex="1" parent="1">
  <mxGeometry x="1515" y="280" width="0" height="0" as="geometry" />
</mxCell>
        <mxCell id="130806692031728" value="39" style="text;whiteSpace=wrap;rounded=0;dashed=0;inherit=default;" vertex="1" parent="1">
  <mxGeometry x="1555" y="280" width="0" height="0" as="geometry" />
</mxCell>
        <mxCell id="130806692031920" value="40" style="text;whiteSpace=wrap;rounded=0;dashed=0;inherit=default;" vertex="1" parent="1">
  <mxGeometry x="1595" y="280" width="0" height="0" as="geometry" />
</mxCell>
        <mxCell id="130806692032112" value="41" style="text;whiteSpace=wrap;rounded=0;dashed=0;inherit=default;" vertex="1" parent="1">
  <mxGeometry x="1635" y="280" width="0" height="0" as="geometry" />
</mxCell>
        <mxCell id="130806692032304" value="42" style="text;whiteSpace=wrap;rounded=0;dashed=0;inherit=default;" vertex="1" parent="1">
  <mxGeometry x="1675" y="280" width="0" height="0" as="geometry" />
</mxCell>
        <mxCell id="130806692032496" value="43" style="text;whiteSpace=wrap;rounded=0;dashed=0;inherit=default;" vertex="1" parent="1">
  <mxGeometry x="1715" y="280" width="0" height="0" as="geometry" />
</mxCell>
        <mxCell id="130806692032688" value="44" style="text;whiteSpace=wrap;rounded=0;dashed=0;inherit=default;" vertex="1" parent="1">
  <mxGeometry x="1755" y="280" width="0" height="0" as="geometry" />
</mxCell>
        <mxCell id="130806692032880" value="45" style="text;whiteSpace=wrap;rounded=0;dashed=0;inherit=default;" vertex="1" parent="1">
  <mxGeometry x="1795" y="280" width="0" height="0" as="geometry" />
</mxCell>
        <mxCell id="130806692033072" value="46" style="text;whiteSpace=wrap;rounded=0;dashed=0;inherit=default;" vertex="1" parent="1">
  <mxGeometry x="1835" y="280" width="0" height="0" as="geometry" />
</mxCell>
        <mxCell id="130806692033264" value="47" style="text;whiteSpace=wrap;rounded=0;dashed=0;inherit=default;" vertex="1" parent="1">
  <mxGeometry x="1875" y="280" width="0" height="0" as="geometry" />
</mxCell>
        <mxCell id="130806692033456" value="48" style="text;whiteSpace=wrap;rounded=0;dashed=0;inherit=default;" vertex="1" parent="1">
  <mxGeometry x="1915" y="280" width="0" height="0" as="geometry" />
</mxCell>
        <mxCell id="130806692033648" value="49" style="text;whiteSpace=wrap;rounded=0;dashed=0;inherit=default;" vertex="1" parent="1">
  <mxGeometry x="1955" y="280" width="0" height="0" as="geometry" />
</mxCell>
        <mxCell id="130806692033840" value="50" style="text;whiteSpace=wrap;rounded=0;dashed=0;inherit=default;" vertex="1" parent="1">
  <mxGeometry x="1995" y="280" width="0" height="0" as="geometry" />
</mxCell>
        <mxCell id="130806692034032" value="51" style="text;whiteSpace=wrap;rounded=0;dashed=0;inherit=default;" vertex="1" parent="1">
  <mxGeometry x="2035" y="280" width="0" height="0" as="geometry" />
</mxCell>
        <mxCell id="130806692034224" value="52" style="text;whiteSpace=wrap;rounded=0;dashed=0;inherit=default;" vertex="1" parent="1">
  <mxGeometry x="2075" y="280" width="0" height="0" as="geometry" />
</mxCell>
        <mxCell id="130806692034416" value="53" style="text;whiteSpace=wrap;rounded=0;dashed=0;inherit=default;" vertex="1" parent="1">
  <mxGeometry x="2115" y="280" width="0" height="0" as="geometry" />
</mxCell>
        <mxCell id="130806692034608" value="54" style="text;whiteSpace=wrap;rounded=0;dashed=0;inherit=default;" vertex="1" parent="1">
  <mxGeometry x="2155" y="280" width="0" height="0" as="geometry" />
</mxCell>
        <mxCell id="130806692034800" value="55" style="text;whiteSpace=wrap;rounded=0;dashed=0;inherit=default;" vertex="1" parent="1">
  <mxGeometry x="2195" y="280" width="0" height="0" as="geometry" />
</mxCell>
        <mxCell id="130806692034992" value="56" style="text;whiteSpace=wrap;rounded=0;dashed=0;inherit=default;" vertex="1" parent="1">
  <mxGeometry x="2235" y="280" width="0" height="0" as="geometry" />
</mxCell>
        <mxCell id="130806692035184" value="57" style="text;whiteSpace=wrap;rounded=0;dashed=0;inherit=default;" vertex="1" parent="1">
  <mxGeometry x="2275" y="280" width="0" height="0" as="geometry" />
</mxCell>
        <mxCell id="130806692035376" value="58" style="text;whiteSpace=wrap;rounded=0;dashed=0;inherit=default;" vertex="1" parent="1">
  <mxGeometry x="2315" y="280" width="0" height="0" as="geometry" />
</mxCell>
        <mxCell id="130806692035568" value="59" style="text;whiteSpace=wrap;rounded=0;dashed=0;inherit=default;" vertex="1" parent="1">
  <mxGeometry x="2355" y="280" width="0" height="0" as="geometry" />
</mxCell>
        <mxCell id="130806692035760" value="60" style="text;whiteSpace=wrap;rounded=0;dashed=0;inherit=default;" vertex="1" parent="1">
  <mxGeometry x="2395" y="280" width="0" height="0" as="geometry" />
</mxCell>
        <mxCell id="130806692035904" value="$$\tau_4: T=10, C=5$$" style="text;whiteSpace=wrap;rounded=0;dashed=0;inherit=default;" vertex="1" parent="1">
  <mxGeometry x="-120" y="255" width="120" height="40" as="geometry" />
</mxCell>
      </root>
    </mxGraphModel>
  </diagram>
</mxfile>